<?xml version="1.0" encoding="UTF-8"?><svg xmlns="http://www.w3.org/2000/svg" xmlns:xlink="http://www.w3.org/1999/xlink" viewBox="-25 -14.4338 50 43.3013" width="500" height="433" version="1.1"><!--spectre-patch-meta {"aligned_crop":"atlas_empty_aligned_to_inscribed_core","patch_engine":"1.0.0","static_example":"triangle-50u.svg","tiles":166}--><defs><path id="proto" d="M0 0 L1 0 L1.5 -0.8660254 L2.3660254 -0.3660254 L2.3660254 0.6339746 L3.3660254 0.6339746 L3.8660254 1.5 L3 2 L2.1339746 1.5 L1.6339746 2.3660254 L0.6339746 2.3660254 L-0.3660254 2.3660254 L-0.8660254 1.5 L0 1 Z" fill-rule="evenodd"/></defs><g transform="matrix(1 0 0 -1 0 14.433757)"><g id="t_spectre_tile_1_1__pv1.0.0__141d4bdc8d0ae0ed5cc776b945"><path d="M17.282167 -2.7353722 L16.416142 -2.2353722 L16.416142 -1.2353722 L15.416142 -1.2353722 L14.916142 -0.36934682 L14.416142 0.49667858 L14.916142 1.362704 L15.782167 0.86270399 L16.07198 1.0300275 L17.764051 -1.9007251 Z" fill-rule="evenodd" fill="#f1543f" opacity="1" stroke="#151821" stroke-width="0.08"/></g><g id="t_spectre_tile_1_1__pv1.0.0__7ccdb60e278bb495ec328981e5"><path d="M15.782167 0.86270399 L14.916142 1.362704 L14.416142 0.49667858 L13.416142 0.49667858 L13.416142 1.4966786 L14.282167 1.9966786 L13.782167 2.862704 L14.282167 3.7287294 L14.398025 3.9294019 L16.07198 1.0300275 Z" fill-rule="evenodd" fill="#f1543f" opacity="1" stroke="#151821" stroke-width="0.08"/></g><g id="t_spectre_tile_1_1__pv1.0.0__2f56eec4d99747db2926756574"><path d="M13.782167 2.862704 L14.282167 1.9966786 L13.416142 1.4966786 L12.550116 1.9966786 L12.050116 1.1306532 L11.050116 1.1306532 L11.050116 2.1306532 L11.916142 2.6306532 L11.416142 3.4966786 L11.916142 4.362704 L12.416142 5.2287294 L13.416142 5.2287294 L13.416142 4.2287294 L14.282167 3.7287294 Z" fill-rule="evenodd" fill="#f1543f" opacity="1" stroke="#151821" stroke-width="0.08"/></g><g id="t_spectre_tile_1_1__pv1.0.0__68ecefea274c36c0a3f5f6dcc6"><path d="M14.282167 3.7287294 L13.416142 4.2287294 L13.416142 5.2287294 L12.416142 5.2287294 L11.916142 6.0947548 L12.782167 6.5947548 L12.897691 6.5280569 L14.398025 3.9294019 Z" fill-rule="evenodd" fill="#f1543f" opacity="1" stroke="#151821" stroke-width="0.08"/></g><g id="t_spectre_tile_1_1__pv1.0.0__d097421fea36e4d2e320f9867f"><path d="M21.782167 -9.3334484 L21.782167 -8.8603066 L22.19192 -9.5700193 Z M20.782167 -8.3334484 L20.282167 -7.467423 L19.782167 -6.6013976 L20.130076 -5.9988013 L21.477985 -8.3334484 Z" fill-rule="evenodd" fill="#f1543f" opacity="1" stroke="#151821" stroke-width="0.08"/></g><g id="t_spectre_tile_1_1__pv1.0.0__0eea2241f560f3e94a81067bba"><path d="M20.782167 -8.3334484 L21.477985 -8.3334484 L21.782167 -8.8603066 L21.782167 -9.3334484 L20.916142 -9.8334484 L21.416142 -10.699474 L20.916142 -11.565499 L20.050116 -11.065499 L20.050116 -10.065499 L19.050116 -10.065499 L18.550116 -9.1994738 L18.050116 -8.3334484 L18.550116 -7.467423 L19.416142 -7.967423 L20.282167 -7.467423 Z" fill-rule="evenodd" fill="#f1543f" opacity="1" stroke="#151821" stroke-width="0.08"/></g><g id="t_spectre_tile_1_1__pv1.0.0__c90af113b47282a3fa7dc99040"><path d="M19.782167 -6.6013976 L20.282167 -7.467423 L19.416142 -7.967423 L18.550116 -7.467423 L18.050116 -8.3334484 L17.050116 -8.3334484 L17.050116 -7.3334484 L17.916142 -6.8334484 L17.416142 -5.967423 L17.916142 -5.1013976 L18.416142 -4.2353722 L19.11196 -4.2353722 L19.416142 -4.7622304 L19.416142 -5.2353722 L19.825895 -5.4719431 L20.130076 -5.9988013 Z" fill-rule="evenodd" fill="#f1543f" opacity="1" stroke="#151821" stroke-width="0.08"/></g><g id="t_spectre_tile_1_1__pv1.0.0__b5dccc85173407cf0a85580b22"><path d="M19.416142 -5.2353722 L19.416142 -4.7622304 L19.825895 -5.4719431 Z M18.416142 -4.2353722 L17.916142 -3.3693468 L18.438005 -3.0680487 L19.11196 -4.2353722 Z" fill-rule="evenodd" fill="#f1543f" opacity="1" stroke="#151821" stroke-width="0.08"/></g><g id="t_spectre_tile_1_1__pv1.0.0__82cb74d1de369c6631e88f77e2"><path d="M18.684091 -14.163575 L19.184091 -13.29755 L20.050116 -13.79755 L20.050116 -14.433757 L17.684091 -14.433757 L17.684091 -14.163575 Z" fill-rule="evenodd" fill="#f1543f" opacity="1" stroke="#151821" stroke-width="0.08"/></g><g id="t_spectre_tile_1_1__pv1.0.0__7ccf8a740c08c3996fcdbb05a9"><path d="M16.684091 -14.163575 L17.684091 -14.163575 L17.684091 -14.433757 L14.108029 -14.433757 L13.95204 -14.163575 L14.45204 -13.29755 L15.318065 -13.79755 L16.184091 -13.29755 Z" fill-rule="evenodd" fill="#f1543f" opacity="1" stroke="#151821" stroke-width="0.08"/></g><g id="t_spectre_tile_1_1__pv1.0.0__9a9a3c9bd68deb02ee2222525e"><path d="M13.95204 -14.163575 L14.108029 -14.433757 L12.019971 -14.433757 L12.086015 -14.395626 L11.586015 -13.529601 L12.086015 -12.663575 L12.586015 -11.79755 L13.586015 -11.79755 L13.586015 -12.79755 L14.45204 -13.29755 Z" fill-rule="evenodd" fill="#f1543f" opacity="1" stroke="#151821" stroke-width="0.08"/></g><g id="t_spectre_tile_1_1__pv1.0.0__7d6ffa45088e9ea57124e9d2b3"><path d="M14.95204 -12.431525 L14.45204 -13.29755 L13.586015 -12.79755 L13.586015 -11.79755 L12.586015 -11.79755 L12.086015 -10.931525 L12.95204 -10.431525 L13.818065 -10.931525 L14.318065 -10.065499 L15.318065 -10.065499 L16.318065 -10.065499 L16.818065 -10.931525 L15.95204 -11.431525 L15.95204 -12.431525 Z" fill-rule="evenodd" fill="#f1543f" opacity="1" stroke="#151821" stroke-width="0.08"/></g><g id="t_spectre_tile_1_1__pv1.0.0__9f4b35ed671f69224f0cfaf68e"><path d="M14.318065 -10.065499 L13.818065 -10.931525 L12.95204 -10.431525 L12.95204 -9.4315246 L11.95204 -9.4315246 L11.45204 -8.5654992 L12.318065 -8.0654992 L13.184091 -8.5654992 L13.684091 -7.6994738 L14.684091 -7.6994738 L15.684091 -7.6994738 L16.184091 -8.5654992 L15.318065 -9.0654992 L15.318065 -10.065499 Z" fill-rule="evenodd" fill="#f1543f" opacity="1" stroke="#151821" stroke-width="0.08"/></g><g id="t_spectre_tile_1_1__pv1.0.0__83be561de2ec388195c8057fd6"><path d="M16.318065 -10.065499 L15.318065 -10.065499 L15.318065 -9.0654992 L16.184091 -8.5654992 L15.684091 -7.6994738 L16.184091 -6.8334484 L17.050116 -7.3334484 L17.050116 -8.3334484 L18.050116 -8.3334484 L18.550116 -9.1994738 L19.050116 -10.065499 L18.550116 -10.931525 L17.684091 -10.431525 L16.818065 -10.931525 Z" fill-rule="evenodd" fill="#f1543f" opacity="1" stroke="#151821" stroke-width="0.08"/></g><g id="t_spectre_tile_1_1__pv1.0.0__0485d4d3acc3383cdc413ccd59"><path d="M20.416142 -12.431525 L20.916142 -13.29755 L20.050116 -13.79755 L19.184091 -13.29755 L18.684091 -14.163575 L17.684091 -14.163575 L17.684091 -13.163575 L18.550116 -12.663575 L18.050116 -11.79755 L18.550116 -10.931525 L19.050116 -10.065499 L20.050116 -10.065499 L20.050116 -11.065499 L20.916142 -11.565499 Z" fill-rule="evenodd" fill="#f1543f" opacity="1" stroke="#151821" stroke-width="0.08"/></g><g id="t_spectre_tile_1_1__pv1.0.0__ece060843b6fc50e0cbe3ec54e"><path d="M17.684091 -13.163575 L17.684091 -14.163575 L16.684091 -14.163575 L16.184091 -13.29755 L15.318065 -13.79755 L14.45204 -13.29755 L14.95204 -12.431525 L15.95204 -12.431525 L15.95204 -11.431525 L16.818065 -10.931525 L17.684091 -10.431525 L18.550116 -10.931525 L18.050116 -11.79755 L18.550116 -12.663575 Z" fill-rule="evenodd" fill="#f1543f" opacity="1" stroke="#151821" stroke-width="0.08"/></g><g id="t_spectre_tile_1_1__pv1.0.0__806c5bf518eda4823e57b0690e"><path d="M22.416142 -14.431525 L23.282167 -13.931525 L22.782167 -13.065499 L23.282167 -12.199474 L23.496102 -11.828928 L25 -14.433757 L22.416142 -14.433757 Z" fill-rule="evenodd" fill="#f1543f" opacity="1" stroke="#151821" stroke-width="0.08"/></g><g id="t_spectre_tile_1_1__pv1.0.0__f9bcc2af07ea19f205bd9f4f0f"><path d="M22.782167 -13.065499 L23.282167 -13.931525 L22.416142 -14.431525 L21.550116 -13.931525 L21.260152 -14.433757 L20.050116 -14.433757 L20.050116 -13.79755 L20.916142 -13.29755 L20.416142 -12.431525 L20.916142 -11.565499 L21.416142 -10.699474 L22.416142 -10.699474 L22.416142 -11.699474 L23.282167 -12.199474 Z" fill-rule="evenodd" fill="#f1543f" opacity="1" stroke="#151821" stroke-width="0.08"/></g><g id="t_spectre_tile_1_1__pv1.0.0__6295aad85cd5093e478137125d"><path d="M23.282167 -12.199474 L22.416142 -11.699474 L22.416142 -10.699474 L21.416142 -10.699474 L20.916142 -9.8334484 L21.782167 -9.3334484 L22.19192 -9.5700193 L23.496102 -11.828928 Z" fill-rule="evenodd" fill="#f1543f" opacity="1" stroke="#151821" stroke-width="0.08"/></g><g id="t_spectre_tile_1_1__pv1.0.0__d31983704e72ba57b0da21e73f"><path d="M2.7821671 23.522958 L2.2821671 24.388983 L1.7821671 25.255009 L1.9339238 25.517859 L3.0856805 23.522958 Z" fill-rule="evenodd" fill="#f1543f" opacity="1" stroke="#151821" stroke-width="0.08"/></g><g id="t_spectre_tile_1_1__pv1.0.0__a9966f231ea25d848b8517e196"><path d="M1.7821671 25.255009 L0.78216707 25.255009 L0.78216707 26.255009 L1.3267895 26.569447 L1.9339238 25.517859 Z" fill-rule="evenodd" fill="#f1543f" opacity="1" stroke="#151821" stroke-width="0.08"/></g><g id="t_spectre_tile_1_1__pv1.0.0__a37fcfbf42548a3bd15e214fef"><path d="M0.78216707 26.255009 L-0.083858331 26.755009 L-0.58385833 25.888983 L-1.5838583 25.888983 L-1.5838583 26.12419 L-0.9215281 27.27138 L-0.71783293 27.388983 L-0.78573132 27.506587 L0 28.867513 L1.3267895 26.569447 Z" fill-rule="evenodd" fill="#f1543f" opacity="1" stroke="#151821" stroke-width="0.08"/></g><g id="t_spectre_tile_1_1__pv1.0.0__e4b644df845de76545df3b52ba"><path d="M8.2821671 13.192831 L7.4161417 13.692831 L7.4161417 14.692831 L6.4161417 14.692831 L5.9161417 15.558856 L5.4161417 16.424882 L5.9161417 17.290907 L6.7821671 16.790907 L6.9248657 16.873294 L8.6659746 13.857605 Z" fill-rule="evenodd" fill="#f1543f" opacity="1" stroke="#151821" stroke-width="0.08"/></g><g id="t_spectre_tile_1_1__pv1.0.0__a39bd0a51cbf6f85b34565d34f"><path d="M6.7821671 16.790907 L5.9161417 17.290907 L5.4161417 16.424882 L4.4161417 16.424882 L4.4161417 17.424882 L5.2821671 17.924882 L4.7821671 18.790907 L5.2821671 19.656933 L5.2999492 19.687732 L6.9248657 16.873294 Z" fill-rule="evenodd" fill="#f1543f" opacity="1" stroke="#151821" stroke-width="0.08"/></g><g id="t_spectre_tile_1_1__pv1.0.0__11b0e8a9c6d762ec0a74157c8b"><path d="M-3.6819345 21.790907 L-4.1819345 20.924882 L-4.6819345 20.058856 L-5.0856805 20.058856 L-3.8838075 22.140561 Z" fill-rule="evenodd" fill="#f1543f" opacity="1" stroke="#151821" stroke-width="0.08"/></g><g id="t_spectre_tile_1_1__pv1.0.0__5078cc9bbb5d977ea42a0414f5"><path d="M-4.6819345 20.058856 L-4.1819345 19.192831 L-5.0479599 18.692831 L-5.6677567 19.050671 L-5.0856805 20.058856 Z" fill-rule="evenodd" fill="#f1543f" opacity="1" stroke="#151821" stroke-width="0.08"/></g><g id="t_spectre_tile_1_1__pv1.0.0__7af403f443faa83c069a2439b9"><path d="M-5.0479599 18.692831 L-5.0479599 17.692831 L-4.0479599 17.692831 L-3.5479599 16.826806 L-4.4139854 16.326806 L-5.2800108 16.826806 L-5.7800108 15.96078 L-6.7800108 15.96078 L-7.4517059 15.96078 L-5.6677567 19.050671 Z" fill-rule="evenodd" fill="#f1543f" opacity="1" stroke="#151821" stroke-width="0.08"/></g><g id="t_spectre_tile_1_1__pv1.0.0__81c0aa9afb0c10fc02c6f4d73f"><path d="M-2.4139854 13.594755 L-2.9139854 14.46078 L-2.0479599 14.96078 L-1.1819345 14.46078 L-0.68193454 15.326806 L0.31806546 15.326806 L0.31806546 14.326806 L-0.54795995 13.826806 L-0.047959946 12.96078 L-0.54795995 12.094755 L-1.0479599 11.228729 L-2.0479599 11.228729 L-2.0479599 12.228729 L-2.9139854 12.728729 Z" fill-rule="evenodd" fill="#f1543f" opacity="1" stroke="#151821" stroke-width="0.08"/></g><g id="t_spectre_tile_1_1__pv1.0.0__ff231f367394c4307085c8ff68"><path d="M-3.4139854 11.862704 L-2.9139854 12.728729 L-2.0479599 12.228729 L-2.0479599 11.228729 L-1.0479599 11.228729 L-0.54795995 10.362704 L-1.4139854 9.862704 L-2.2800108 10.362704 L-2.7800108 9.4966786 L-3.7800108 9.4966786 L-4.7800108 9.4966786 L-5.2800108 10.362704 L-4.4139854 10.862704 L-4.4139854 11.862704 Z" fill-rule="evenodd" fill="#f1543f" opacity="1" stroke="#151821" stroke-width="0.08"/></g><g id="t_spectre_tile_1_1__pv1.0.0__4cfdf0be430cb38fa3f6b0f389"><path d="M-2.7800108 9.4966786 L-2.2800108 10.362704 L-1.4139854 9.862704 L-1.4139854 8.862704 L-0.41398535 8.862704 L0.08601465 7.9966786 L-0.78001075 7.4966786 L-1.6460362 7.9966786 L-2.1460362 7.1306532 L-3.1460362 7.1306532 L-4.1460362 7.1306532 L-4.6460362 7.9966786 L-3.7800108 8.4966786 L-3.7800108 9.4966786 Z" fill-rule="evenodd" fill="#f1543f" opacity="1" stroke="#151821" stroke-width="0.08"/></g><g id="t_spectre_tile_1_1__pv1.0.0__e6a7029ebcfe2a030b5a0171b1"><path d="M-4.7800108 9.4966786 L-3.7800108 9.4966786 L-3.7800108 8.4966786 L-4.6460362 7.9966786 L-4.1460362 7.1306532 L-4.6460362 6.2646278 L-5.5120616 6.7646278 L-5.5120616 7.7646278 L-6.5120616 7.7646278 L-7.0120616 8.6306532 L-7.5120616 9.4966786 L-7.0120616 10.362704 L-6.1460362 9.862704 L-5.2800108 10.362704 Z" fill-rule="evenodd" fill="#f1543f" opacity="1" stroke="#151821" stroke-width="0.08"/></g><g id="t_spectre_tile_1_1__pv1.0.0__dd1a8be5fd81f0dfd5e7cfcf00"><path d="M-5.7800108 11.228729 L-5.2800108 10.362704 L-6.1460362 9.862704 L-7.0120616 10.362704 L-7.5120616 9.4966786 L-8.5120616 9.4966786 L-8.5120616 10.496679 L-7.6460362 10.996679 L-8.1460362 11.862704 L-7.6460362 12.728729 L-7.1460362 13.594755 L-6.1460362 13.594755 L-6.1460362 12.594755 L-5.2800108 12.094755 Z" fill-rule="evenodd" fill="#f1543f" opacity="1" stroke="#151821" stroke-width="0.08"/></g><g id="t_spectre_tile_1_1__pv1.0.0__0974f40654aa0990ebeb8a3328"><path d="M-8.1460362 11.862704 L-7.6460362 10.996679 L-8.5120616 10.496679 L-9.378087 10.996679 L-9.878087 10.130653 L-10.817731 10.130653 L-8.5120616 14.12419 L-8.5120616 13.228729 L-7.6460362 12.728729 Z" fill-rule="evenodd" fill="#f1543f" opacity="1" stroke="#151821" stroke-width="0.08"/></g><g id="t_spectre_tile_1_1__pv1.0.0__1249b3533a2262500d6a28e8c6"><path d="M-7.1460362 13.594755 L-7.6460362 12.728729 L-8.5120616 13.228729 L-8.5120616 14.12419 L-7.4517059 15.96078 L-6.7800108 15.96078 L-5.7800108 15.96078 L-5.2800108 15.094755 L-6.1460362 14.594755 L-6.1460362 13.594755 Z" fill-rule="evenodd" fill="#f1543f" opacity="1" stroke="#151821" stroke-width="0.08"/></g><g id="t_spectre_tile_1_1__pv1.0.0__e317f4879401b16a4c27a9373d"><path d="M-3.0479599 15.96078 L-2.0479599 15.96078 L-2.0479599 14.96078 L-2.9139854 14.46078 L-2.4139854 13.594755 L-2.9139854 12.728729 L-3.7800108 13.228729 L-3.7800108 14.228729 L-4.7800108 14.228729 L-5.2800108 15.094755 L-5.7800108 15.96078 L-5.2800108 16.826806 L-4.4139854 16.326806 L-3.5479599 16.826806 Z" fill-rule="evenodd" fill="#f1543f" opacity="1" stroke="#151821" stroke-width="0.08"/></g><g id="t_spectre_tile_1_1__pv1.0.0__9ae76719f3c89caa56bb34af4c"><path d="M-3.7800108 13.228729 L-2.9139854 12.728729 L-3.4139854 11.862704 L-4.4139854 11.862704 L-4.4139854 10.862704 L-5.2800108 10.362704 L-5.7800108 11.228729 L-5.2800108 12.094755 L-6.1460362 12.594755 L-6.1460362 13.594755 L-6.1460362 14.594755 L-5.2800108 15.094755 L-4.7800108 14.228729 L-3.7800108 14.228729 Z" fill-rule="evenodd" fill="#f1543f" opacity="1" stroke="#151821" stroke-width="0.08"/></g><g id="t_spectre_tile_1_1__pv1.0.0__18a39dabc5bc6ab1932da5820e"><path d="M0.050116265 23.522958 L-0.94988373 23.522958 L-0.94988373 24.522958 L-0.083858331 25.022958 L-0.58385833 25.888983 L-0.083858331 26.755009 L0.78216707 26.255009 L0.78216707 25.255009 L1.7821671 25.255009 L2.2821671 24.388983 L2.7821671 23.522958 L2.2821671 22.656933 L1.4161417 23.156933 L0.55011627 22.656933 Z" fill-rule="evenodd" fill="#f1543f" opacity="1" stroke="#151821" stroke-width="0.08"/></g><g id="t_spectre_tile_1_1__pv1.0.0__f2febde48f657629a6391d0de4"><path d="M1.0501163 21.790907 L0.55011627 22.656933 L1.4161417 23.156933 L2.2821671 22.656933 L2.7821671 23.522958 L3.0856805 23.522958 L3.6928149 22.471371 L2.9161417 22.022958 L3.4161417 21.156933 L2.9161417 20.290907 L2.4161417 19.424882 L1.4161417 19.424882 L1.4161417 20.424882 L0.55011627 20.924882 Z" fill-rule="evenodd" fill="#f1543f" opacity="1" stroke="#151821" stroke-width="0.08"/></g><g id="t_spectre_tile_1_1__pv1.0.0__07a5b9039ff14ac9194c0cf186"><path d="M3.4161417 21.156933 L2.9161417 22.022958 L3.6928149 22.471371 L5.2999492 19.687732 L5.2821671 19.656933 L4.7821671 18.790907 L3.7821671 18.790907 L3.7821671 19.790907 L2.9161417 20.290907 Z" fill-rule="evenodd" fill="#f1543f" opacity="1" stroke="#151821" stroke-width="0.08"/></g><g id="t_spectre_tile_1_1__pv1.0.0__d02a47cad5d40388ef4188cec0"><path d="M2.4161417 19.424882 L2.9161417 20.290907 L3.7821671 19.790907 L3.7821671 18.790907 L4.7821671 18.790907 L5.2821671 17.924882 L4.4161417 17.424882 L3.5501163 17.924882 L3.0501163 17.058856 L2.0501163 17.058856 L1.0501163 17.058856 L0.55011627 17.924882 L1.4161417 18.424882 L1.4161417 19.424882 Z" fill-rule="evenodd" fill="#f1543f" opacity="1" stroke="#151821" stroke-width="0.08"/></g><g id="t_spectre_tile_1_1__pv1.0.0__e6e9cae9c10797ddf94ba083a1"><path d="M0.41614167 19.424882 L1.4161417 19.424882 L1.4161417 18.424882 L0.55011627 17.924882 L1.0501163 17.058856 L0.55011627 16.192831 L-0.31590914 16.692831 L-0.31590914 17.692831 L-1.3159091 17.692831 L-1.8159091 18.558856 L-2.3159091 19.424882 L-1.8159091 20.290907 L-0.94988373 19.790907 L-0.083858331 20.290907 Z" fill-rule="evenodd" fill="#f1543f" opacity="1" stroke="#151821" stroke-width="0.08"/></g><g id="t_spectre_tile_1_1__pv1.0.0__18c3769e56b7c6ccaf7aece248"><path d="M-1.3159091 17.692831 L-0.31590914 17.692831 L-0.31590914 16.692831 L-1.1819345 16.192831 L-0.68193454 15.326806 L-1.1819345 14.46078 L-2.0479599 14.96078 L-2.0479599 15.96078 L-3.0479599 15.96078 L-3.5479599 16.826806 L-4.0479599 17.692831 L-3.5479599 18.558856 L-2.6819345 18.058856 L-1.8159091 18.558856 Z" fill-rule="evenodd" fill="#f1543f" opacity="1" stroke="#151821" stroke-width="0.08"/></g><g id="t_spectre_tile_1_1__pv1.0.0__852de069128ac27856c2fbfe7d"><path d="M-2.3159091 19.424882 L-1.8159091 18.558856 L-2.6819345 18.058856 L-3.5479599 18.558856 L-4.0479599 17.692831 L-5.0479599 17.692831 L-5.0479599 18.692831 L-4.1819345 19.192831 L-4.6819345 20.058856 L-4.1819345 20.924882 L-3.6819345 21.790907 L-2.6819345 21.790907 L-2.6819345 20.790907 L-1.8159091 20.290907 Z" fill-rule="evenodd" fill="#f1543f" opacity="1" stroke="#151821" stroke-width="0.08"/></g><g id="t_spectre_tile_1_1__pv1.0.0__b08cda80c72f5e47e8ab8ffc1d"><path d="M-2.3159091 24.156933 L-1.8159091 25.022958 L-0.94988373 24.522958 L-0.94988373 23.522958 L0.050116265 23.522958 L0.55011627 22.656933 L-0.31590914 22.156933 L-1.1819345 22.656933 L-1.6819345 21.790907 L-2.6819345 21.790907 L-3.6819345 21.790907 L-3.8838075 22.140561 L-2.7196551 24.156933 Z" fill-rule="evenodd" fill="#f1543f" opacity="1" stroke="#151821" stroke-width="0.08"/></g><g id="t_spectre_tile_1_1__pv1.0.0__1038a0d756005b03a0a3763eae"><path d="M-0.31590914 22.156933 L0.55011627 22.656933 L1.0501163 21.790907 L0.55011627 20.924882 L1.4161417 20.424882 L1.4161417 19.424882 L0.41614167 19.424882 L-0.083858331 20.290907 L-0.94988373 19.790907 L-1.8159091 20.290907 L-2.6819345 20.790907 L-2.6819345 21.790907 L-1.6819345 21.790907 L-1.1819345 22.656933 Z" fill-rule="evenodd" fill="#f1543f" opacity="1" stroke="#151821" stroke-width="0.08"/></g><g id="t_spectre_tile_1_1__pv1.0.0__1967250ad99a471116f737b223"><path d="M-0.71783293 27.388983 L-0.9215281 27.27138 L-0.78573132 27.506587 Z" fill-rule="evenodd" fill="#f1543f" opacity="1" stroke="#151821" stroke-width="0.08"/></g><g id="t_spectre_tile_1_1__pv1.0.0__f2b14e897c0ad7e00931b4b5d3"><path d="M-1.5838583 25.888983 L-0.58385833 25.888983 L-0.083858331 25.022958 L-0.94988373 24.522958 L-1.8159091 25.022958 L-2.3159091 24.156933 L-2.7196551 24.156933 L-1.5838583 26.12419 Z" fill-rule="evenodd" fill="#f1543f" opacity="1" stroke="#151821" stroke-width="0.08"/></g><g id="t_spectre_tile_1_1__pv1.0.0__7e38890a5eb7a95d639d7097db"><path d="M-3.9761632 -9.8956263 L-4.4761632 -10.761652 L-5.3421886 -10.261652 L-5.3421886 -9.2616517 L-6.3421886 -9.2616517 L-6.8421886 -8.3956263 L-5.9761632 -7.8956263 L-5.1101378 -8.3956263 L-4.6101378 -7.5296009 L-3.6101378 -7.5296009 L-2.6101378 -7.5296009 L-2.1101378 -8.3956263 L-2.9761632 -8.8956263 L-2.9761632 -9.8956263 Z" fill-rule="evenodd" fill="#f1543f" opacity="1" stroke="#151821" stroke-width="0.08"/></g><g id="t_spectre_tile_1_1__pv1.0.0__b96fc30e8042a6fc4caeab06a4"><path d="M-1.9761632 -9.8956263 L-2.9761632 -9.8956263 L-2.9761632 -8.8956263 L-2.1101378 -8.3956263 L-2.6101378 -7.5296009 L-2.1101378 -6.6635755 L-1.2441124 -7.1635755 L-1.2441124 -8.1635755 L-0.24411237 -8.1635755 L0.25588763 -9.0296009 L0.75588763 -9.8956263 L0.25588763 -10.761652 L-0.61013777 -10.261652 L-1.4761632 -10.761652 Z" fill-rule="evenodd" fill="#f1543f" opacity="1" stroke="#151821" stroke-width="0.08"/></g><g id="t_spectre_tile_1_1__pv1.0.0__f31cc35935658dde93dd420d28"><path d="M-0.24411237 -8.1635755 L-1.2441124 -8.1635755 L-1.2441124 -7.1635755 L-0.37808697 -6.6635755 L-0.87808697 -5.79755 L-0.37808697 -4.9315246 L0.48793844 -5.4315246 L0.48793844 -6.4315246 L1.4879384 -6.4315246 L1.9879384 -7.29755 L2.4879384 -8.1635755 L1.9879384 -9.0296009 L1.121913 -8.5296009 L0.25588763 -9.0296009 Z" fill-rule="evenodd" fill="#f1543f" opacity="1" stroke="#151821" stroke-width="0.08"/></g><g id="t_spectre_tile_1_1__pv1.0.0__30a54607f41ff743660bac8471"><path d="M0.75588763 -9.8956263 L0.25588763 -9.0296009 L1.121913 -8.5296009 L1.9879384 -9.0296009 L2.4879384 -8.1635755 L3.4879384 -8.1635755 L3.4879384 -9.1635755 L2.621913 -9.6635755 L3.121913 -10.529601 L2.621913 -11.395626 L2.121913 -12.261652 L1.121913 -12.261652 L1.121913 -11.261652 L0.25588763 -10.761652 Z" fill-rule="evenodd" fill="#f1543f" opacity="1" stroke="#151821" stroke-width="0.08"/></g><g id="t_spectre_tile_1_1__pv1.0.0__99f82b730ba9eb30d9a4247a0c"><path d="M-0.24411237 -11.627677 L0.25588763 -10.761652 L1.121913 -11.261652 L1.121913 -12.261652 L2.121913 -12.261652 L2.621913 -13.127677 L1.7558876 -13.627677 L0.88986223 -13.127677 L0.38986223 -13.993702 L-0.61013777 -13.993702 L-1.6101378 -13.993702 L-2.1101378 -13.127677 L-1.2441124 -12.627677 L-1.2441124 -11.627677 Z" fill-rule="evenodd" fill="#f1543f" opacity="1" stroke="#151821" stroke-width="0.08"/></g><g id="t_spectre_tile_1_1__pv1.0.0__80ab71240705ec0337f9bdab7b"><path d="M0.38986223 -13.993702 L0.88986223 -13.127677 L1.7558876 -13.627677 L1.7558876 -14.433757 L-0.61013777 -14.433757 L-0.61013777 -13.993702 Z" fill-rule="evenodd" fill="#f1543f" opacity="1" stroke="#151821" stroke-width="0.08"/></g><g id="t_spectre_tile_1_1__pv1.0.0__c23169da823aa915988fed3637"><path d="M-1.6101378 -13.993702 L-0.61013777 -13.993702 L-0.61013777 -14.433757 L-4.0881231 -14.433757 L-4.3421886 -13.993702 L-3.8421886 -13.127677 L-2.9761632 -13.627677 L-2.1101378 -13.127677 Z" fill-rule="evenodd" fill="#f1543f" opacity="1" stroke="#151821" stroke-width="0.08"/></g><g id="t_spectre_tile_1_1__pv1.0.0__4f11b3a13e758a89a0777d60d7"><path d="M-5.708214 -11.627677 L-6.208214 -10.761652 L-5.3421886 -10.261652 L-4.4761632 -10.761652 L-3.9761632 -9.8956263 L-2.9761632 -9.8956263 L-2.9761632 -10.895626 L-3.8421886 -11.395626 L-3.3421886 -12.261652 L-3.8421886 -13.127677 L-4.3421886 -13.993702 L-5.3421886 -13.993702 L-5.3421886 -12.993702 L-6.208214 -12.493702 Z" fill-rule="evenodd" fill="#f1543f" opacity="1" stroke="#151821" stroke-width="0.08"/></g><g id="t_spectre_tile_1_1__pv1.0.0__e7a264032ba1556bf9cb334aca"><path d="M-2.9761632 -10.895626 L-2.9761632 -9.8956263 L-1.9761632 -9.8956263 L-1.4761632 -10.761652 L-0.61013777 -10.261652 L0.25588763 -10.761652 L-0.24411237 -11.627677 L-1.2441124 -11.627677 L-1.2441124 -12.627677 L-2.1101378 -13.127677 L-2.9761632 -13.627677 L-3.8421886 -13.127677 L-3.3421886 -12.261652 L-3.8421886 -11.395626 Z" fill-rule="evenodd" fill="#f1543f" opacity="1" stroke="#151821" stroke-width="0.08"/></g><g id="t_spectre_tile_1_1__pv1.0.0__efcb6ebeddc180420d040e2781"><path d="M-13.80629 -12.725753 L-13.30629 -13.591779 L-14.172316 -14.091779 L-15.038341 -13.591779 L-15.524457 -14.433757 L-16.538341 -14.433757 L-16.538341 -13.457804 L-15.672316 -12.957804 L-16.172316 -12.091779 L-15.672316 -11.225753 L-15.172316 -10.359728 L-14.172316 -10.359728 L-14.172316 -11.359728 L-13.30629 -11.859728 Z" fill-rule="evenodd" fill="#f1543f" opacity="1" stroke="#151821" stroke-width="0.08"/></g><g id="t_spectre_tile_1_1__pv1.0.0__6c814c424d103962d6eaf9254b"><path d="M-12.80629 -10.993702 L-13.30629 -11.859728 L-14.172316 -11.359728 L-14.172316 -10.359728 L-15.172316 -10.359728 L-15.672316 -9.4937025 L-14.80629 -8.9937025 L-13.940265 -9.4937025 L-13.440265 -8.6276771 L-12.440265 -8.6276771 L-11.440265 -8.6276771 L-10.940265 -9.4937025 L-11.80629 -9.9937025 L-11.80629 -10.993702 Z" fill-rule="evenodd" fill="#f1543f" opacity="1" stroke="#151821" stroke-width="0.08"/></g><g id="t_spectre_tile_1_1__pv1.0.0__e5d453a68b11276cc9ae13da1c"><path d="M-13.440265 -8.6276771 L-13.940265 -9.4937025 L-14.80629 -8.9937025 L-14.80629 -7.9937025 L-15.80629 -7.9937025 L-16.30629 -7.1276771 L-15.440265 -6.6276771 L-14.574239 -7.1276771 L-14.074239 -6.2616517 L-13.074239 -6.2616517 L-12.074239 -6.2616517 L-11.574239 -7.1276771 L-12.440265 -7.6276771 L-12.440265 -8.6276771 Z" fill-rule="evenodd" fill="#f1543f" opacity="1" stroke="#151821" stroke-width="0.08"/></g><g id="t_spectre_tile_1_1__pv1.0.0__620d657486d497966cb1176575"><path d="M-11.440265 -8.6276771 L-12.440265 -8.6276771 L-12.440265 -7.6276771 L-11.574239 -7.1276771 L-12.074239 -6.2616517 L-11.574239 -5.3956263 L-10.708214 -5.8956263 L-10.708214 -6.8956263 L-9.708214 -6.8956263 L-9.208214 -7.7616517 L-8.708214 -8.6276771 L-9.208214 -9.4937025 L-10.074239 -8.9937025 L-10.940265 -9.4937025 Z" fill-rule="evenodd" fill="#f1543f" opacity="1" stroke="#151821" stroke-width="0.08"/></g><g id="t_spectre_tile_1_1__pv1.0.0__443703c4b4f03a96eaa2e4a185"><path d="M-10.440265 -10.359728 L-10.940265 -9.4937025 L-10.074239 -8.9937025 L-9.208214 -9.4937025 L-8.708214 -8.6276771 L-7.708214 -8.6276771 L-7.708214 -9.6276771 L-8.5742394 -10.127677 L-8.0742394 -10.993702 L-8.5742394 -11.859728 L-9.0742394 -12.725753 L-10.074239 -12.725753 L-10.074239 -11.725753 L-10.940265 -11.225753 Z" fill-rule="evenodd" fill="#f1543f" opacity="1" stroke="#151821" stroke-width="0.08"/></g><g id="t_spectre_tile_1_1__pv1.0.0__dba5e8e8b9f9306f0d4df30bad"><path d="M-8.0742394 -10.993702 L-8.5742394 -10.127677 L-7.708214 -9.6276771 L-6.8421886 -10.127677 L-6.3421886 -9.2616517 L-5.3421886 -9.2616517 L-5.3421886 -10.261652 L-6.208214 -10.761652 L-5.708214 -11.627677 L-6.208214 -12.493702 L-6.708214 -13.359728 L-7.708214 -13.359728 L-7.708214 -12.359728 L-8.5742394 -11.859728 Z" fill-rule="evenodd" fill="#f1543f" opacity="1" stroke="#151821" stroke-width="0.08"/></g><g id="t_spectre_tile_1_1__pv1.0.0__f74937bf0e8c7ffb6557c4b62e"><path d="M-9.0742394 -12.725753 L-8.5742394 -11.859728 L-7.708214 -12.359728 L-7.708214 -13.359728 L-6.708214 -13.359728 L-6.208214 -14.225753 L-6.5684865 -14.433757 L-7.5799922 -14.433757 L-7.9402648 -14.225753 L-8.0603556 -14.433757 L-10.820174 -14.433757 L-10.940265 -14.225753 L-10.074239 -13.725753 L-10.074239 -12.725753 Z" fill-rule="evenodd" fill="#f1543f" opacity="1" stroke="#151821" stroke-width="0.08"/></g><g id="t_spectre_tile_1_1__pv1.0.0__bb4156d050da7e1b0969005e13"><path d="M-14.172316 -14.091779 L-13.30629 -13.591779 L-13.80629 -12.725753 L-13.30629 -11.859728 L-12.440265 -12.359728 L-12.440265 -13.359728 L-11.440265 -13.359728 L-10.940265 -14.225753 L-10.820174 -14.433757 L-14.172316 -14.433757 Z" fill-rule="evenodd" fill="#f1543f" opacity="1" stroke="#151821" stroke-width="0.08"/></g><g id="t_spectre_tile_1_1__pv1.0.0__b4350a55eabd3d5c83047c31f3"><path d="M-12.440265 -12.359728 L-13.30629 -11.859728 L-12.80629 -10.993702 L-11.80629 -10.993702 L-11.80629 -9.9937025 L-10.940265 -9.4937025 L-10.440265 -10.359728 L-10.940265 -11.225753 L-10.074239 -11.725753 L-10.074239 -12.725753 L-10.074239 -13.725753 L-10.940265 -14.225753 L-11.440265 -13.359728 L-12.440265 -13.359728 Z" fill-rule="evenodd" fill="#f1543f" opacity="1" stroke="#151821" stroke-width="0.08"/></g><g id="t_spectre_tile_1_1__pv1.0.0__02f880af6dcfc558a591605670"><path d="M-17.440265 -3.8956263 L-16.940265 -4.7616517 L-17.80629 -5.2616517 L-18.672316 -4.7616517 L-19.172316 -5.6276771 L-19.915808 -5.6276771 L-17.80629 -1.9738859 L-17.80629 -2.5296009 L-16.940265 -3.0296009 Z" fill-rule="evenodd" fill="#f1543f" opacity="1" stroke="#151821" stroke-width="0.08"/></g><g id="t_spectre_tile_1_1__pv1.0.0__cb48c2c941def38b1c5402e881"><path d="M-16.440265 -2.1635755 L-16.940265 -3.0296009 L-17.80629 -2.5296009 L-17.80629 -1.9738859 L-16.549782 0.20244995 L-16.074239 0.20244995 L-15.074239 0.20244995 L-14.574239 -0.66357545 L-15.440265 -1.1635755 L-15.440265 -2.1635755 Z" fill-rule="evenodd" fill="#f1543f" opacity="1" stroke="#151821" stroke-width="0.08"/></g><g id="t_spectre_tile_1_1__pv1.0.0__4ccf3154ee83c09f82ffbe15bf"><path d="M-16.549782 0.20244995 L-16.074239 1.0261141 L-16.074239 0.20244995 Z M-15.208214 1.70245 L-15.921528 1.2906179 L-15.445985 2.114282 Z" fill-rule="evenodd" fill="#f1543f" opacity="1" stroke="#151821" stroke-width="0.08"/></g><g id="t_spectre_tile_1_1__pv1.0.0__e9cbafaf343b427e2af579abcd"><path d="M-15.074239 0.20244995 L-16.074239 0.20244995 L-16.074239 1.0261141 L-15.921528 1.2906179 L-15.208214 1.70245 L-15.445985 2.114282 L-14.814871 3.2074041 L-14.342189 2.9345008 L-14.342189 1.9345008 L-13.342189 1.9345008 L-12.842189 1.0684754 L-12.342189 0.20244995 L-12.842189 -0.66357545 L-13.708214 -0.16357545 L-14.574239 -0.66357545 Z" fill-rule="evenodd" fill="#f1543f" opacity="1" stroke="#151821" stroke-width="0.08"/></g><g id="t_spectre_tile_1_1__pv1.0.0__d42d5d3e0b24dbbd80c8c6ceae"><path d="M-14.074239 -1.5296009 L-14.574239 -0.66357545 L-13.708214 -0.16357545 L-12.842189 -0.66357545 L-12.342189 0.20244995 L-11.342189 0.20244995 L-11.342189 -0.79755005 L-12.208214 -1.29755 L-11.708214 -2.1635755 L-12.208214 -3.0296009 L-12.708214 -3.8956263 L-13.708214 -3.8956263 L-13.708214 -2.8956263 L-14.574239 -2.3956263 Z" fill-rule="evenodd" fill="#f1543f" opacity="1" stroke="#151821" stroke-width="0.08"/></g><g id="t_spectre_tile_1_1__pv1.0.0__2c397414eea4281ac41a1e53c1"><path d="M-11.708214 -2.1635755 L-12.208214 -1.29755 L-11.342189 -0.79755005 L-10.476163 -1.29755 L-9.9761632 -0.43152465 L-8.9761632 -0.43152465 L-8.9761632 -1.4315246 L-9.8421886 -1.9315246 L-9.3421886 -2.79755 L-9.8421886 -3.6635755 L-10.342189 -4.5296009 L-11.342189 -4.5296009 L-11.342189 -3.5296009 L-12.208214 -3.0296009 Z" fill-rule="evenodd" fill="#f1543f" opacity="1" stroke="#151821" stroke-width="0.08"/></g><g id="t_spectre_tile_1_1__pv1.0.0__69ce9426006d122a30e3b94b98"><path d="M-12.708214 -3.8956263 L-12.208214 -3.0296009 L-11.342189 -3.5296009 L-11.342189 -4.5296009 L-10.342189 -4.5296009 L-9.8421886 -5.3956263 L-10.708214 -5.8956263 L-11.574239 -5.3956263 L-12.074239 -6.2616517 L-13.074239 -6.2616517 L-14.074239 -6.2616517 L-14.574239 -5.3956263 L-13.708214 -4.8956263 L-13.708214 -3.8956263 Z" fill-rule="evenodd" fill="#f1543f" opacity="1" stroke="#151821" stroke-width="0.08"/></g><g id="t_spectre_tile_1_1__pv1.0.0__481cf81e01a6e5ba65ab07abdd"><path d="M-16.80629 -6.2616517 L-17.80629 -6.2616517 L-17.80629 -5.2616517 L-16.940265 -4.7616517 L-17.440265 -3.8956263 L-16.940265 -3.0296009 L-16.074239 -3.5296009 L-16.074239 -4.5296009 L-15.074239 -4.5296009 L-14.574239 -5.3956263 L-14.074239 -6.2616517 L-14.574239 -7.1276771 L-15.440265 -6.6276771 L-16.30629 -7.1276771 Z" fill-rule="evenodd" fill="#f1543f" opacity="1" stroke="#151821" stroke-width="0.08"/></g><g id="t_spectre_tile_1_1__pv1.0.0__39b841e4fd7a0d801bf155079d"><path d="M-16.074239 -3.5296009 L-16.940265 -3.0296009 L-16.440265 -2.1635755 L-15.440265 -2.1635755 L-15.440265 -1.1635755 L-14.574239 -0.66357545 L-14.074239 -1.5296009 L-14.574239 -2.3956263 L-13.708214 -2.8956263 L-13.708214 -3.8956263 L-13.708214 -4.8956263 L-14.574239 -5.3956263 L-15.074239 -4.5296009 L-16.074239 -4.5296009 Z" fill-rule="evenodd" fill="#f1543f" opacity="1" stroke="#151821" stroke-width="0.08"/></g><g id="t_spectre_tile_1_1__pv1.0.0__120d0765d5c6206a1d04b32f8d"><path d="M-19.904366 -13.823829 L-18.904366 -13.823829 L-18.904366 -14.433757 L-22.284276 -14.433757 L-22.636417 -13.823829 L-22.136417 -12.957804 L-21.270392 -13.457804 L-20.404366 -12.957804 Z" fill-rule="evenodd" fill="#f1543f" opacity="1" stroke="#151821" stroke-width="0.08"/></g><g id="t_spectre_tile_1_1__pv1.0.0__c5b0366d414d1feffafd6394c4"><path d="M-20.904366 -12.091779 L-20.404366 -12.957804 L-21.270392 -13.457804 L-22.136417 -12.957804 L-22.636417 -13.823829 L-23.636417 -13.823829 L-23.636417 -12.823829 L-22.770392 -12.323829 L-23.270392 -11.457804 L-22.770392 -10.591779 L-22.270392 -9.7257533 L-21.270392 -9.7257533 L-21.270392 -10.725753 L-20.404366 -11.225753 Z" fill-rule="evenodd" fill="#f1543f" opacity="1" stroke="#151821" stroke-width="0.08"/></g><g id="t_spectre_tile_1_1__pv1.0.0__79179db87309bc249664635b39"><path d="M-23.270392 -11.457804 L-22.770392 -12.323829 L-23.636417 -12.823829 L-23.961985 -12.635863 L-22.778973 -10.586825 L-22.770392 -10.591779 Z" fill-rule="evenodd" fill="#f1543f" opacity="1" stroke="#151821" stroke-width="0.08"/></g><g id="t_spectre_tile_1_1__pv1.0.0__250993ed7fd166211205b08e5f"><path d="M-22.270392 -9.7257533 L-22.770392 -10.591779 L-22.778973 -10.586825 L-20.915808 -7.3597279 L-20.904366 -7.3597279 L-20.404366 -8.2257533 L-21.270392 -8.7257533 L-21.270392 -9.7257533 Z" fill-rule="evenodd" fill="#f1543f" opacity="1" stroke="#151821" stroke-width="0.08"/></g><g id="t_spectre_tile_1_1__pv1.0.0__cc0563e766004046b8f457b703"><path d="M-20.270392 -9.7257533 L-21.270392 -9.7257533 L-21.270392 -8.7257533 L-20.404366 -8.2257533 L-20.904366 -7.3597279 L-20.404366 -6.4937025 L-19.538341 -6.9937025 L-19.538341 -7.9937025 L-18.538341 -7.9937025 L-18.038341 -8.8597279 L-17.538341 -9.7257533 L-18.038341 -10.591779 L-18.904366 -10.091779 L-19.770392 -10.591779 Z" fill-rule="evenodd" fill="#f1543f" opacity="1" stroke="#151821" stroke-width="0.08"/></g><g id="t_spectre_tile_1_1__pv1.0.0__c56e101d0e3a9e7ee31f82a96e"><path d="M-18.538341 -7.9937025 L-19.538341 -7.9937025 L-19.538341 -6.9937025 L-18.672316 -6.4937025 L-19.172316 -5.6276771 L-18.672316 -4.7616517 L-17.80629 -5.2616517 L-17.80629 -6.2616517 L-16.80629 -6.2616517 L-16.30629 -7.1276771 L-15.80629 -7.9937025 L-16.30629 -8.8597279 L-17.172316 -8.3597279 L-18.038341 -8.8597279 Z" fill-rule="evenodd" fill="#f1543f" opacity="1" stroke="#151821" stroke-width="0.08"/></g><g id="t_spectre_tile_1_1__pv1.0.0__0678eed0062d7147f487afc072"><path d="M-17.538341 -9.7257533 L-18.038341 -8.8597279 L-17.172316 -8.3597279 L-16.30629 -8.8597279 L-15.80629 -7.9937025 L-14.80629 -7.9937025 L-14.80629 -8.9937025 L-15.672316 -9.4937025 L-15.172316 -10.359728 L-15.672316 -11.225753 L-16.172316 -12.091779 L-17.172316 -12.091779 L-17.172316 -11.091779 L-18.038341 -10.591779 Z" fill-rule="evenodd" fill="#f1543f" opacity="1" stroke="#151821" stroke-width="0.08"/></g><g id="t_spectre_tile_1_1__pv1.0.0__e8093d420be2c0718542a6229a"><path d="M-18.904366 -13.823829 L-19.904366 -13.823829 L-20.404366 -12.957804 L-19.538341 -12.457804 L-18.672316 -12.957804 L-18.172316 -12.091779 L-17.172316 -12.091779 L-16.172316 -12.091779 L-15.672316 -12.957804 L-16.538341 -13.457804 L-16.538341 -14.433757 L-18.904366 -14.433757 Z" fill-rule="evenodd" fill="#f1543f" opacity="1" stroke="#151821" stroke-width="0.08"/></g><g id="t_spectre_tile_1_1__pv1.0.0__819fbf30767b7175dc13039f34"><path d="M-19.538341 -12.457804 L-20.404366 -12.957804 L-20.904366 -12.091779 L-20.404366 -11.225753 L-21.270392 -10.725753 L-21.270392 -9.7257533 L-20.270392 -9.7257533 L-19.770392 -10.591779 L-18.904366 -10.091779 L-18.038341 -10.591779 L-17.172316 -11.091779 L-17.172316 -12.091779 L-18.172316 -12.091779 L-18.672316 -12.957804 Z" fill-rule="evenodd" fill="#f1543f" opacity="1" stroke="#151821" stroke-width="0.08"/></g><g id="t_spectre_tile_1_1__pv1.0.0__4a9bd2c5d561e664463ccf18d2"><path d="M-15.038341 -13.591779 L-14.172316 -14.091779 L-14.172316 -14.433757 L-15.524457 -14.433757 Z" fill-rule="evenodd" fill="#f1543f" opacity="1" stroke="#151821" stroke-width="0.08"/></g><g id="t_spectre_tile_1_1__pv1.0.0__545b0ffa84f87ca1af66b1afcd"><path d="M-7.9402648 -14.225753 L-7.5799922 -14.433757 L-8.0603556 -14.433757 Z" fill-rule="evenodd" fill="#f1543f" opacity="1" stroke="#151821" stroke-width="0.08"/></g><g id="t_spectre_tile_1_1__pv1.0.0__a253fa3026ad84172ecca1da89"><path d="M-6.208214 -14.225753 L-6.708214 -13.359728 L-6.208214 -12.493702 L-5.3421886 -12.993702 L-5.3421886 -13.993702 L-4.3421886 -13.993702 L-4.0881231 -14.433757 L-6.5684865 -14.433757 Z" fill-rule="evenodd" fill="#f1543f" opacity="1" stroke="#151821" stroke-width="0.08"/></g><g id="t_spectre_tile_1_1__pv1.0.0__5b14512b605814e7d404bdbc39"><path d="M-9.878087 10.130653 L-9.378087 9.2646278 L-10.244112 8.7646278 L-11.110138 9.2646278 L-11.610138 8.3986024 L-11.817731 8.3986024 L-10.817731 10.130653 Z" fill-rule="evenodd" fill="#f1543f" opacity="1" stroke="#151821" stroke-width="0.08"/></g><g id="t_spectre_tile_1_1__pv1.0.0__1ec0e7a90d08409ae65916e4ee"><path d="M-19.172316 -5.6276771 L-18.672316 -6.4937025 L-19.538341 -6.9937025 L-20.404366 -6.4937025 L-20.904366 -7.3597279 L-20.915808 -7.3597279 L-19.915808 -5.6276771 Z" fill-rule="evenodd" fill="#f1543f" opacity="1" stroke="#151821" stroke-width="0.08"/></g><g id="t_spectre_tile_1_1__pv1.0.0__b0c65c859b64288d02252777fd"><path d="M12.684091 -1.2353722 L11.684091 -1.2353722 L11.684091 -0.23537222 L12.550116 0.26462778 L12.050116 1.1306532 L12.550116 1.9966786 L13.416142 1.4966786 L13.416142 0.49667858 L14.416142 0.49667858 L14.916142 -0.36934682 L15.416142 -1.2353722 L14.916142 -2.1013976 L14.050116 -1.6013976 L13.184091 -2.1013976 Z" fill-rule="evenodd" fill="#f1543f" opacity="1" stroke="#151821" stroke-width="0.08"/></g><g id="t_spectre_tile_1_1__pv1.0.0__21a88403ba50421575620f10fb"><path d="M13.684091 -2.967423 L13.184091 -2.1013976 L14.050116 -1.6013976 L14.916142 -2.1013976 L15.416142 -1.2353722 L16.416142 -1.2353722 L16.416142 -2.2353722 L15.550116 -2.7353722 L16.050116 -3.6013976 L15.550116 -4.467423 L15.050116 -5.3334484 L14.050116 -5.3334484 L14.050116 -4.3334484 L13.184091 -3.8334484 Z" fill-rule="evenodd" fill="#f1543f" opacity="1" stroke="#151821" stroke-width="0.08"/></g><g id="t_spectre_tile_1_1__pv1.0.0__1364ad098ebc76b5e6babb1e47"><path d="M16.050116 -3.6013976 L15.550116 -2.7353722 L16.416142 -2.2353722 L17.282167 -2.7353722 L17.764051 -1.9007251 L18.438005 -3.0680487 L17.916142 -3.3693468 L18.416142 -4.2353722 L17.916142 -5.1013976 L17.416142 -5.967423 L16.416142 -5.967423 L16.416142 -4.967423 L15.550116 -4.467423 Z" fill-rule="evenodd" fill="#f1543f" opacity="1" stroke="#151821" stroke-width="0.08"/></g><g id="t_spectre_tile_1_1__pv1.0.0__59754310480d5c2eb0228eed2b"><path d="M15.050116 -5.3334484 L15.550116 -4.467423 L16.416142 -4.967423 L16.416142 -5.967423 L17.416142 -5.967423 L17.916142 -6.8334484 L17.050116 -7.3334484 L16.184091 -6.8334484 L15.684091 -7.6994738 L14.684091 -7.6994738 L13.684091 -7.6994738 L13.184091 -6.8334484 L14.050116 -6.3334484 L14.050116 -5.3334484 Z" fill-rule="evenodd" fill="#f1543f" opacity="1" stroke="#151821" stroke-width="0.08"/></g><g id="t_spectre_tile_1_1__pv1.0.0__49b43733cd0679cac04b685d28"><path d="M13.050116 -5.3334484 L14.050116 -5.3334484 L14.050116 -6.3334484 L13.184091 -6.8334484 L13.684091 -7.6994738 L13.184091 -8.5654992 L12.318065 -8.0654992 L12.318065 -7.0654992 L11.318065 -7.0654992 L10.818065 -6.1994738 L10.318065 -5.3334484 L10.818065 -4.467423 L11.684091 -4.967423 L12.550116 -4.467423 Z" fill-rule="evenodd" fill="#f1543f" opacity="1" stroke="#151821" stroke-width="0.08"/></g><g id="t_spectre_tile_1_1__pv1.0.0__de8b25e936cc2ed617bb07bdfa"><path d="M11.318065 -7.0654992 L12.318065 -7.0654992 L12.318065 -8.0654992 L11.45204 -8.5654992 L11.95204 -9.4315246 L11.45204 -10.29755 L10.586015 -9.79755 L10.586015 -8.79755 L9.5860146 -8.79755 L9.0860146 -7.9315246 L8.5860146 -7.0654992 L9.0860146 -6.1994738 L9.9520401 -6.6994738 L10.818065 -6.1994738 Z" fill-rule="evenodd" fill="#f1543f" opacity="1" stroke="#151821" stroke-width="0.08"/></g><g id="t_spectre_tile_1_1__pv1.0.0__5d767820224316a4feaaaef102"><path d="M10.318065 -5.3334484 L10.818065 -6.1994738 L9.9520401 -6.6994738 L9.0860146 -6.1994738 L8.5860146 -7.0654992 L7.5860146 -7.0654992 L7.5860146 -6.0654992 L8.4520401 -5.5654992 L7.9520401 -4.6994738 L8.4520401 -3.8334484 L8.9520401 -2.967423 L9.9520401 -2.967423 L9.9520401 -3.967423 L10.818065 -4.467423 Z" fill-rule="evenodd" fill="#f1543f" opacity="1" stroke="#151821" stroke-width="0.08"/></g><g id="t_spectre_tile_1_1__pv1.0.0__83b4648c54ffecce146b778040"><path d="M10.318065 -0.60139763 L10.818065 0.26462778 L11.684091 -0.23537222 L11.684091 -1.2353722 L12.684091 -1.2353722 L13.184091 -2.1013976 L12.318065 -2.6013976 L11.45204 -2.1013976 L10.95204 -2.967423 L9.9520401 -2.967423 L8.9520401 -2.967423 L8.4520401 -2.1013976 L9.3180655 -1.6013976 L9.3180655 -0.60139763 Z" fill-rule="evenodd" fill="#f1543f" opacity="1" stroke="#151821" stroke-width="0.08"/></g><g id="t_spectre_tile_1_1__pv1.0.0__bb268bbdc19453c0c2ea08df6c"><path d="M12.318065 -2.6013976 L13.184091 -2.1013976 L13.684091 -2.967423 L13.184091 -3.8334484 L14.050116 -4.3334484 L14.050116 -5.3334484 L13.050116 -5.3334484 L12.550116 -4.467423 L11.684091 -4.967423 L10.818065 -4.467423 L9.9520401 -3.967423 L9.9520401 -2.967423 L10.95204 -2.967423 L11.45204 -2.1013976 Z" fill-rule="evenodd" fill="#f1543f" opacity="1" stroke="#151821" stroke-width="0.08"/></g><g id="t_spectre_tile_1_1__pv1.0.0__37809d42cea8b824430732ac0d"><path d="M5.3180655 5.862704 L4.8180655 4.9966786 L3.9520401 5.4966786 L3.9520401 6.4966786 L2.9520401 6.4966786 L2.4520401 7.362704 L3.3180655 7.862704 L4.1840909 7.362704 L4.6840909 8.2287294 L5.6840909 8.2287294 L6.6840909 8.2287294 L7.1840909 7.362704 L6.3180655 6.862704 L6.3180655 5.862704 Z" fill-rule="evenodd" fill="#f1543f" opacity="1" stroke="#151821" stroke-width="0.08"/></g><g id="t_spectre_tile_1_1__pv1.0.0__30caef38cf0b72ea3105bcf105"><path d="M7.3180655 5.862704 L6.3180655 5.862704 L6.3180655 6.862704 L7.1840909 7.362704 L6.6840909 8.2287294 L7.1840909 9.0947548 L8.0501163 8.5947548 L8.0501163 7.5947548 L9.0501163 7.5947548 L9.5501163 6.7287294 L10.050116 5.862704 L9.5501163 4.9966786 L8.6840909 5.4966786 L7.8180655 4.9966786 Z" fill-rule="evenodd" fill="#f1543f" opacity="1" stroke="#151821" stroke-width="0.08"/></g><g id="t_spectre_tile_1_1__pv1.0.0__53c9d9915586e9b5691932d98e"><path d="M9.0501163 7.5947548 L8.0501163 7.5947548 L8.0501163 8.5947548 L8.9161417 9.0947548 L8.4161417 9.9607802 L8.9161417 10.826806 L9.7821671 10.326806 L9.7821671 9.3268056 L10.782167 9.3268056 L11.282167 8.4607802 L11.782167 7.5947548 L11.282167 6.7287294 L10.416142 7.2287294 L9.5501163 6.7287294 Z" fill-rule="evenodd" fill="#f1543f" opacity="1" stroke="#151821" stroke-width="0.08"/></g><g id="t_spectre_tile_1_1__pv1.0.0__a8803fd80ede01a61eb615d32d"><path d="M10.050116 5.862704 L9.5501163 6.7287294 L10.416142 7.2287294 L11.282167 6.7287294 L11.782167 7.5947548 L12.281833 7.5947548 L12.782167 6.7281507 L12.782167 6.5947548 L11.916142 6.0947548 L12.416142 5.2287294 L11.916142 4.362704 L11.416142 3.4966786 L10.416142 3.4966786 L10.416142 4.4966786 L9.5501163 4.9966786 Z" fill-rule="evenodd" fill="#f1543f" opacity="1" stroke="#151821" stroke-width="0.08"/></g><g id="t_spectre_tile_1_1__pv1.0.0__79ed2c146256f241c7d8c4a9e2"><path d="M9.0501163 4.1306532 L9.5501163 4.9966786 L10.416142 4.4966786 L10.416142 3.4966786 L11.416142 3.4966786 L11.916142 2.6306532 L11.050116 2.1306532 L10.184091 2.6306532 L9.6840909 1.7646278 L8.6840909 1.7646278 L7.6840909 1.7646278 L7.1840909 2.6306532 L8.0501163 3.1306532 L8.0501163 4.1306532 Z" fill-rule="evenodd" fill="#f1543f" opacity="1" stroke="#151821" stroke-width="0.08"/></g><g id="t_spectre_tile_1_1__pv1.0.0__5bf0f1e24dfe42f01925c17c20"><path d="M9.6840909 1.7646278 L10.184091 2.6306532 L11.050116 2.1306532 L11.050116 1.1306532 L12.050116 1.1306532 L12.550116 0.26462778 L11.684091 -0.23537222 L10.818065 0.26462778 L10.318065 -0.60139763 L9.3180655 -0.60139763 L8.3180655 -0.60139763 L7.8180655 0.26462778 L8.6840909 0.76462778 L8.6840909 1.7646278 Z" fill-rule="evenodd" fill="#f1543f" opacity="1" stroke="#151821" stroke-width="0.08"/></g><g id="t_spectre_tile_1_1__pv1.0.0__0aaf9b3d7b2e227c3b293b83cc"><path d="M7.6840909 1.7646278 L8.6840909 1.7646278 L8.6840909 0.76462778 L7.8180655 0.26462778 L8.3180655 -0.60139763 L7.8180655 -1.467423 L6.9520401 -0.96742303 L6.9520401 0.032576969 L5.9520401 0.032576969 L5.4520401 0.89860237 L4.9520401 1.7646278 L5.4520401 2.6306532 L6.3180655 2.1306532 L7.1840909 2.6306532 Z" fill-rule="evenodd" fill="#f1543f" opacity="1" stroke="#151821" stroke-width="0.08"/></g><g id="t_spectre_tile_1_1__pv1.0.0__166fe0b96a51d0afb40179b49f"><path d="M3.5860146 4.1306532 L3.0860146 4.9966786 L3.9520401 5.4966786 L4.8180655 4.9966786 L5.3180655 5.862704 L6.3180655 5.862704 L6.3180655 4.862704 L5.4520401 4.362704 L5.9520401 3.4966786 L5.4520401 2.6306532 L4.9520401 1.7646278 L3.9520401 1.7646278 L3.9520401 2.7646278 L3.0860146 3.2646278 Z" fill-rule="evenodd" fill="#f1543f" opacity="1" stroke="#151821" stroke-width="0.08"/></g><g id="t_spectre_tile_1_1__pv1.0.0__b15f2052fdda6d9593d6b3caa1"><path d="M6.3180655 4.862704 L6.3180655 5.862704 L7.3180655 5.862704 L7.8180655 4.9966786 L8.6840909 5.4966786 L9.5501163 4.9966786 L9.0501163 4.1306532 L8.0501163 4.1306532 L8.0501163 3.1306532 L7.1840909 2.6306532 L6.3180655 2.1306532 L5.4520401 2.6306532 L5.9520401 3.4966786 L5.4520401 4.362704 Z" fill-rule="evenodd" fill="#f1543f" opacity="1" stroke="#151821" stroke-width="0.08"/></g><g id="t_spectre_tile_1_1__pv1.0.0__ab5f0f4c2580fbabcee5eb71ac"><path d="M12.782167 6.5947548 L12.782167 6.7281507 L12.897691 6.5280569 Z M11.782167 7.5947548 L11.282167 8.4607802 L10.782167 9.3268056 L11.032 9.7595289 L12.281833 7.5947548 Z" fill-rule="evenodd" fill="#f1543f" opacity="1" stroke="#151821" stroke-width="0.08"/></g><g id="t_spectre_tile_1_1__pv1.0.0__af1ada88260116373bd3c23cd8"><path d="M9.4161417 11.692831 L8.9161417 12.558856 L9.2908911 12.775218 L11.032 9.7595289 L10.782167 9.3268056 L9.7821671 9.3268056 L9.7821671 10.326806 L8.9161417 10.826806 Z" fill-rule="evenodd" fill="#f1543f" opacity="1" stroke="#151821" stroke-width="0.08"/></g><g id="t_spectre_tile_1_1__pv1.0.0__9e804812ee9762c1e3fb320dd8"><path d="M1.3180655 10.594755 L1.8180655 9.7287294 L0.95204005 9.2287294 L0.08601465 9.7287294 L-0.41398535 8.862704 L-1.4139854 8.862704 L-1.4139854 9.862704 L-0.54795995 10.362704 L-1.0479599 11.228729 L-0.54795995 12.094755 L-0.047959946 12.96078 L0.95204005 12.96078 L0.95204005 11.96078 L1.8180655 11.46078 Z" fill-rule="evenodd" fill="#f1543f" opacity="1" stroke="#151821" stroke-width="0.08"/></g><g id="t_spectre_tile_1_1__pv1.0.0__8cf8bcbbdd08d0835deff8dba8"><path d="M2.3180655 12.326806 L1.8180655 11.46078 L0.95204005 11.96078 L0.95204005 12.96078 L-0.047959946 12.96078 L-0.54795995 13.826806 L0.31806546 14.326806 L1.1840909 13.826806 L1.6840909 14.692831 L2.6840909 14.692831 L3.6840909 14.692831 L4.1840909 13.826806 L3.3180655 13.326806 L3.3180655 12.326806 Z" fill-rule="evenodd" fill="#f1543f" opacity="1" stroke="#151821" stroke-width="0.08"/></g><g id="t_spectre_tile_1_1__pv1.0.0__ee320859d32df7b1869496ae56"><path d="M1.6840909 14.692831 L1.1840909 13.826806 L0.31806546 14.326806 L0.31806546 15.326806 L-0.68193454 15.326806 L-1.1819345 16.192831 L-0.31590914 16.692831 L0.55011627 16.192831 L1.0501163 17.058856 L2.0501163 17.058856 L3.0501163 17.058856 L3.5501163 16.192831 L2.6840909 15.692831 L2.6840909 14.692831 Z" fill-rule="evenodd" fill="#f1543f" opacity="1" stroke="#151821" stroke-width="0.08"/></g><g id="t_spectre_tile_1_1__pv1.0.0__81b12e93dd93aac1875fbb9402"><path d="M3.6840909 14.692831 L2.6840909 14.692831 L2.6840909 15.692831 L3.5501163 16.192831 L3.0501163 17.058856 L3.5501163 17.924882 L4.4161417 17.424882 L4.4161417 16.424882 L5.4161417 16.424882 L5.9161417 15.558856 L6.4161417 14.692831 L5.9161417 13.826806 L5.0501163 14.326806 L4.1840909 13.826806 Z" fill-rule="evenodd" fill="#f1543f" opacity="1" stroke="#151821" stroke-width="0.08"/></g><g id="t_spectre_tile_1_1__pv1.0.0__244731d9e5e5e65ae791017744"><path d="M4.6840909 12.96078 L4.1840909 13.826806 L5.0501163 14.326806 L5.9161417 13.826806 L6.4161417 14.692831 L7.4161417 14.692831 L7.4161417 13.692831 L6.5501163 13.192831 L7.0501163 12.326806 L6.5501163 11.46078 L6.0501163 10.594755 L5.0501163 10.594755 L5.0501163 11.594755 L4.1840909 12.094755 Z" fill-rule="evenodd" fill="#f1543f" opacity="1" stroke="#151821" stroke-width="0.08"/></g><g id="t_spectre_tile_1_1__pv1.0.0__ef769f786af83d58b4cc51a0af"><path d="M7.0501163 12.326806 L6.5501163 13.192831 L7.4161417 13.692831 L8.2821671 13.192831 L8.6659746 13.857605 L9.2908911 12.775218 L8.9161417 12.558856 L9.4161417 11.692831 L8.9161417 10.826806 L8.4161417 9.9607802 L7.4161417 9.9607802 L7.4161417 10.96078 L6.5501163 11.46078 Z" fill-rule="evenodd" fill="#f1543f" opacity="1" stroke="#151821" stroke-width="0.08"/></g><g id="t_spectre_tile_1_1__pv1.0.0__f9b18401e4421c5f551a09bd6c"><path d="M6.0501163 10.594755 L6.5501163 11.46078 L7.4161417 10.96078 L7.4161417 9.9607802 L8.4161417 9.9607802 L8.9161417 9.0947548 L8.0501163 8.5947548 L7.1840909 9.0947548 L6.6840909 8.2287294 L5.6840909 8.2287294 L4.6840909 8.2287294 L4.1840909 9.0947548 L5.0501163 9.5947548 L5.0501163 10.594755 Z" fill-rule="evenodd" fill="#f1543f" opacity="1" stroke="#151821" stroke-width="0.08"/></g><g id="t_spectre_tile_1_1__pv1.0.0__5dc9bbbbb5bd02458dcc5e8554"><path d="M1.9520401 8.2287294 L0.95204005 8.2287294 L0.95204005 9.2287294 L1.8180655 9.7287294 L1.3180655 10.594755 L1.8180655 11.46078 L2.6840909 10.96078 L2.6840909 9.9607802 L3.6840909 9.9607802 L4.1840909 9.0947548 L4.6840909 8.2287294 L4.1840909 7.362704 L3.3180655 7.862704 L2.4520401 7.362704 Z" fill-rule="evenodd" fill="#f1543f" opacity="1" stroke="#151821" stroke-width="0.08"/></g><g id="t_spectre_tile_1_1__pv1.0.0__2119fb97aa27573e5f1c4342c1"><path d="M2.6840909 10.96078 L1.8180655 11.46078 L2.3180655 12.326806 L3.3180655 12.326806 L3.3180655 13.326806 L4.1840909 13.826806 L4.6840909 12.96078 L4.1840909 12.094755 L5.0501163 11.594755 L5.0501163 10.594755 L5.0501163 9.5947548 L4.1840909 9.0947548 L3.6840909 9.9607802 L2.6840909 9.9607802 Z" fill-rule="evenodd" fill="#f1543f" opacity="1" stroke="#151821" stroke-width="0.08"/></g><g id="t_spectre_tile_1_1__pv1.0.0__91c5b556027be635150d9984b2"><path d="M-1.1460362 0.66655157 L-0.14603616 0.66655157 L-0.14603616 -0.33344843 L-1.0120616 -0.83344843 L-0.51206156 -1.6994738 L-1.0120616 -2.5654992 L-1.878087 -2.0654992 L-1.878087 -1.0654992 L-2.878087 -1.0654992 L-3.378087 -0.19947384 L-3.878087 0.66655157 L-3.378087 1.532577 L-2.5120616 1.032577 L-1.6460362 1.532577 Z" fill-rule="evenodd" fill="#f1543f" opacity="1" stroke="#151821" stroke-width="0.08"/></g><g id="t_spectre_tile_1_1__pv1.0.0__9d7709e761d167ed2cde876238"><path d="M-2.1460362 2.3986024 L-1.6460362 1.532577 L-2.5120616 1.032577 L-3.378087 1.532577 L-3.878087 0.66655157 L-4.878087 0.66655157 L-4.878087 1.6665516 L-4.0120616 2.1665516 L-4.5120616 3.032577 L-4.0120616 3.8986024 L-3.5120616 4.7646278 L-2.5120616 4.7646278 L-2.5120616 3.7646278 L-1.6460362 3.2646278 Z" fill-rule="evenodd" fill="#f1543f" opacity="1" stroke="#151821" stroke-width="0.08"/></g><g id="t_spectre_tile_1_1__pv1.0.0__f354db988f53682d585018f983"><path d="M-4.5120616 3.032577 L-4.0120616 2.1665516 L-4.878087 1.6665516 L-5.7441124 2.1665516 L-6.2441124 1.3005262 L-7.2441124 1.3005262 L-7.2441124 2.3005262 L-6.378087 2.8005262 L-6.878087 3.6665516 L-6.378087 4.532577 L-5.878087 5.3986024 L-4.878087 5.3986024 L-4.878087 4.3986024 L-4.0120616 3.8986024 Z" fill-rule="evenodd" fill="#f1543f" opacity="1" stroke="#151821" stroke-width="0.08"/></g><g id="t_spectre_tile_1_1__pv1.0.0__c48b0adbe3b4bb99b5bd96e78a"><path d="M-3.5120616 4.7646278 L-4.0120616 3.8986024 L-4.878087 4.3986024 L-4.878087 5.3986024 L-5.878087 5.3986024 L-6.378087 6.2646278 L-5.5120616 6.7646278 L-4.6460362 6.2646278 L-4.1460362 7.1306532 L-3.1460362 7.1306532 L-2.1460362 7.1306532 L-1.6460362 6.2646278 L-2.5120616 5.7646278 L-2.5120616 4.7646278 Z" fill-rule="evenodd" fill="#f1543f" opacity="1" stroke="#151821" stroke-width="0.08"/></g><g id="t_spectre_tile_1_1__pv1.0.0__cb9e3dc5773f1c6dc6a3ec25e4"><path d="M-1.5120616 4.7646278 L-2.5120616 4.7646278 L-2.5120616 5.7646278 L-1.6460362 6.2646278 L-2.1460362 7.1306532 L-1.6460362 7.9966786 L-0.78001075 7.4966786 L-0.78001075 6.4966786 L0.21998925 6.4966786 L0.71998925 5.6306532 L1.2199892 4.7646278 L0.71998925 3.8986024 L-0.14603616 4.3986024 L-1.0120616 3.8986024 Z" fill-rule="evenodd" fill="#f1543f" opacity="1" stroke="#151821" stroke-width="0.08"/></g><g id="t_spectre_tile_1_1__pv1.0.0__4586214dfba73bb8bd283ef566"><path d="M0.21998925 6.4966786 L-0.78001075 6.4966786 L-0.78001075 7.4966786 L0.08601465 7.9966786 L-0.41398535 8.862704 L0.08601465 9.7287294 L0.95204005 9.2287294 L0.95204005 8.2287294 L1.9520401 8.2287294 L2.4520401 7.362704 L2.9520401 6.4966786 L2.4520401 5.6306532 L1.5860146 6.1306532 L0.71998925 5.6306532 Z" fill-rule="evenodd" fill="#f1543f" opacity="1" stroke="#151821" stroke-width="0.08"/></g><g id="t_spectre_tile_1_1__pv1.0.0__2885be7d855ac89eba45ad15fd"><path d="M1.2199892 4.7646278 L0.71998925 5.6306532 L1.5860146 6.1306532 L2.4520401 5.6306532 L2.9520401 6.4966786 L3.9520401 6.4966786 L3.9520401 5.4966786 L3.0860146 4.9966786 L3.5860146 4.1306532 L3.0860146 3.2646278 L2.5860146 2.3986024 L1.5860146 2.3986024 L1.5860146 3.3986024 L0.71998925 3.8986024 Z" fill-rule="evenodd" fill="#f1543f" opacity="1" stroke="#151821" stroke-width="0.08"/></g><g id="t_spectre_tile_1_1__pv1.0.0__28b775074b561c9173872cdaa4"><path d="M1.2199892 0.032576969 L0.71998925 -0.83344843 L-0.14603616 -0.33344843 L-0.14603616 0.66655157 L-1.1460362 0.66655157 L-1.6460362 1.532577 L-0.78001075 2.032577 L0.08601465 1.532577 L0.58601465 2.3986024 L1.5860146 2.3986024 L2.5860146 2.3986024 L3.0860146 1.532577 L2.2199892 1.032577 L2.2199892 0.032576969 Z" fill-rule="evenodd" fill="#f1543f" opacity="1" stroke="#151821" stroke-width="0.08"/></g><g id="t_spectre_tile_1_1__pv1.0.0__15723fcfbf142c1db5c58f511b"><path d="M-0.78001075 2.032577 L-1.6460362 1.532577 L-2.1460362 2.3986024 L-1.6460362 3.2646278 L-2.5120616 3.7646278 L-2.5120616 4.7646278 L-1.5120616 4.7646278 L-1.0120616 3.8986024 L-0.14603616 4.3986024 L0.71998925 3.8986024 L1.5860146 3.3986024 L1.5860146 2.3986024 L0.58601465 2.3986024 L0.08601465 1.532577 Z" fill-rule="evenodd" fill="#f1543f" opacity="1" stroke="#151821" stroke-width="0.08"/></g><g id="t_spectre_tile_1_1__pv1.0.0__9bd67977d3b3e402383fb0516c"><path d="M-10.610138 1.9345008 L-9.6101378 1.9345008 L-9.6101378 0.93450076 L-10.476163 0.43450076 L-9.9761632 -0.43152465 L-10.476163 -1.29755 L-11.342189 -0.79755005 L-11.342189 0.20244995 L-12.342189 0.20244995 L-12.842189 1.0684754 L-13.342189 1.9345008 L-12.842189 2.8005262 L-11.976163 2.3005262 L-11.110138 2.8005262 Z" fill-rule="evenodd" fill="#f1543f" opacity="1" stroke="#151821" stroke-width="0.08"/></g><g id="t_spectre_tile_1_1__pv1.0.0__ee2215f5f5cc8adf712e63403c"><path d="M-11.610138 3.6665516 L-11.110138 2.8005262 L-11.976163 2.3005262 L-12.842189 2.8005262 L-13.342189 1.9345008 L-14.342189 1.9345008 L-14.342189 2.9345008 L-13.476163 3.4345008 L-13.976163 4.3005262 L-13.476163 5.1665516 L-12.976163 6.032577 L-11.976163 6.032577 L-11.976163 5.032577 L-11.110138 4.532577 Z" fill-rule="evenodd" fill="#f1543f" opacity="1" stroke="#151821" stroke-width="0.08"/></g><g id="t_spectre_tile_1_1__pv1.0.0__fa4bfa86f0e9f6810a97e36242"><path d="M-13.976163 4.3005262 L-13.476163 3.4345008 L-14.342189 2.9345008 L-14.814871 3.2074041 L-13.631858 5.2564422 L-13.476163 5.1665516 Z" fill-rule="evenodd" fill="#f1543f" opacity="1" stroke="#151821" stroke-width="0.08"/></g><g id="t_spectre_tile_1_1__pv1.0.0__1ca3691947be6b24d4ce7b50ea"><path d="M-12.976163 6.032577 L-13.476163 5.1665516 L-13.631858 5.2564422 L-11.817731 8.3986024 L-11.610138 8.3986024 L-11.110138 7.532577 L-11.976163 7.032577 L-11.976163 6.032577 Z" fill-rule="evenodd" fill="#f1543f" opacity="1" stroke="#151821" stroke-width="0.08"/></g><g id="t_spectre_tile_1_1__pv1.0.0__4d800f49f5e9ff53794568847c"><path d="M-10.976163 6.032577 L-11.976163 6.032577 L-11.976163 7.032577 L-11.110138 7.532577 L-11.610138 8.3986024 L-11.110138 9.2646278 L-10.244112 8.7646278 L-10.244112 7.7646278 L-9.2441124 7.7646278 L-8.7441124 6.8986024 L-8.2441124 6.032577 L-8.7441124 5.1665516 L-9.6101378 5.6665516 L-10.476163 5.1665516 Z" fill-rule="evenodd" fill="#f1543f" opacity="1" stroke="#151821" stroke-width="0.08"/></g><g id="t_spectre_tile_1_1__pv1.0.0__69e52bcb9d24b42aa2c20f35fa"><path d="M-9.2441124 7.7646278 L-10.244112 7.7646278 L-10.244112 8.7646278 L-9.378087 9.2646278 L-9.878087 10.130653 L-9.378087 10.996679 L-8.5120616 10.496679 L-8.5120616 9.4966786 L-7.5120616 9.4966786 L-7.0120616 8.6306532 L-6.5120616 7.7646278 L-7.0120616 6.8986024 L-7.878087 7.3986024 L-8.7441124 6.8986024 Z" fill-rule="evenodd" fill="#f1543f" opacity="1" stroke="#151821" stroke-width="0.08"/></g><g id="t_spectre_tile_1_1__pv1.0.0__50f52e94c0d51db6a3a4158874"><path d="M-8.2441124 6.032577 L-8.7441124 6.8986024 L-7.878087 7.3986024 L-7.0120616 6.8986024 L-6.5120616 7.7646278 L-5.5120616 7.7646278 L-5.5120616 6.7646278 L-6.378087 6.2646278 L-5.878087 5.3986024 L-6.378087 4.532577 L-6.878087 3.6665516 L-7.878087 3.6665516 L-7.878087 4.6665516 L-8.7441124 5.1665516 Z" fill-rule="evenodd" fill="#f1543f" opacity="1" stroke="#151821" stroke-width="0.08"/></g><g id="t_spectre_tile_1_1__pv1.0.0__057470c49b039eba7f639b18e6"><path d="M-8.2441124 1.3005262 L-8.7441124 0.43450076 L-9.6101378 0.93450076 L-9.6101378 1.9345008 L-10.610138 1.9345008 L-11.110138 2.8005262 L-10.244112 3.3005262 L-9.378087 2.8005262 L-8.878087 3.6665516 L-7.878087 3.6665516 L-6.878087 3.6665516 L-6.378087 2.8005262 L-7.2441124 2.3005262 L-7.2441124 1.3005262 Z" fill-rule="evenodd" fill="#f1543f" opacity="1" stroke="#151821" stroke-width="0.08"/></g><g id="t_spectre_tile_1_1__pv1.0.0__89421fae075d14c56aa2573be7"><path d="M-10.244112 3.3005262 L-11.110138 2.8005262 L-11.610138 3.6665516 L-11.110138 4.532577 L-11.976163 5.032577 L-11.976163 6.032577 L-10.976163 6.032577 L-10.476163 5.1665516 L-9.6101378 5.6665516 L-8.7441124 5.1665516 L-7.878087 4.6665516 L-7.878087 3.6665516 L-8.878087 3.6665516 L-9.378087 2.8005262 Z" fill-rule="evenodd" fill="#f1543f" opacity="1" stroke="#151821" stroke-width="0.08"/></g><g id="t_spectre_tile_1_1__pv1.0.0__a6dd938fab897ef739e5375fd0"><path d="M-3.2441124 -5.1635755 L-2.7441124 -4.29755 L-1.878087 -4.79755 L-1.878087 -5.79755 L-0.87808697 -5.79755 L-0.37808697 -6.6635755 L-1.2441124 -7.1635755 L-2.1101378 -6.6635755 L-2.6101378 -7.5296009 L-3.6101378 -7.5296009 L-4.6101378 -7.5296009 L-5.1101378 -6.6635755 L-4.2441124 -6.1635755 L-4.2441124 -5.1635755 Z" fill-rule="evenodd" fill="#f1543f" opacity="1" stroke="#151821" stroke-width="0.08"/></g><g id="t_spectre_tile_1_1__pv1.0.0__b30b0d084b29fffc166d63f15e"><path d="M-5.2441124 -5.1635755 L-4.2441124 -5.1635755 L-4.2441124 -6.1635755 L-5.1101378 -6.6635755 L-4.6101378 -7.5296009 L-5.1101378 -8.3956263 L-5.9761632 -7.8956263 L-5.9761632 -6.8956263 L-6.9761632 -6.8956263 L-7.4761632 -6.0296009 L-7.9761632 -5.1635755 L-7.4761632 -4.29755 L-6.6101378 -4.79755 L-5.7441124 -4.29755 Z" fill-rule="evenodd" fill="#f1543f" opacity="1" stroke="#151821" stroke-width="0.08"/></g><g id="t_spectre_tile_1_1__pv1.0.0__7469d9973f1a7f89c711a0a5dd"><path d="M-6.9761632 -6.8956263 L-5.9761632 -6.8956263 L-5.9761632 -7.8956263 L-6.8421886 -8.3956263 L-6.3421886 -9.2616517 L-6.8421886 -10.127677 L-7.708214 -9.6276771 L-7.708214 -8.6276771 L-8.708214 -8.6276771 L-9.208214 -7.7616517 L-9.708214 -6.8956263 L-9.208214 -6.0296009 L-8.3421886 -6.5296009 L-7.4761632 -6.0296009 Z" fill-rule="evenodd" fill="#f1543f" opacity="1" stroke="#151821" stroke-width="0.08"/></g><g id="t_spectre_tile_1_1__pv1.0.0__75fd09cc60540a833e1efe6855"><path d="M-7.9761632 -5.1635755 L-7.4761632 -6.0296009 L-8.3421886 -6.5296009 L-9.208214 -6.0296009 L-9.708214 -6.8956263 L-10.708214 -6.8956263 L-10.708214 -5.8956263 L-9.8421886 -5.3956263 L-10.342189 -4.5296009 L-9.8421886 -3.6635755 L-9.3421886 -2.79755 L-8.3421886 -2.79755 L-8.3421886 -3.79755 L-7.4761632 -4.29755 Z" fill-rule="evenodd" fill="#f1543f" opacity="1" stroke="#151821" stroke-width="0.08"/></g><g id="t_spectre_tile_1_1__pv1.0.0__b2b830ec38d3f435426177d3ee"><path d="M-6.9761632 -3.4315246 L-7.4761632 -4.29755 L-8.3421886 -3.79755 L-8.3421886 -2.79755 L-9.3421886 -2.79755 L-9.8421886 -1.9315246 L-8.9761632 -1.4315246 L-8.1101378 -1.9315246 L-7.6101378 -1.0654992 L-6.6101378 -1.0654992 L-5.6101378 -1.0654992 L-5.1101378 -1.9315246 L-5.9761632 -2.4315246 L-5.9761632 -3.4315246 Z" fill-rule="evenodd" fill="#f1543f" opacity="1" stroke="#151821" stroke-width="0.08"/></g><g id="t_spectre_tile_1_1__pv1.0.0__3a643ca9b23a0cc9a65d7508b8"><path d="M-7.6101378 -1.0654992 L-8.1101378 -1.9315246 L-8.9761632 -1.4315246 L-8.9761632 -0.43152465 L-9.9761632 -0.43152465 L-10.476163 0.43450076 L-9.6101378 0.93450076 L-8.7441124 0.43450076 L-8.2441124 1.3005262 L-7.2441124 1.3005262 L-6.2441124 1.3005262 L-5.7441124 0.43450076 L-6.6101378 -0.065499242 L-6.6101378 -1.0654992 Z" fill-rule="evenodd" fill="#f1543f" opacity="1" stroke="#151821" stroke-width="0.08"/></g><g id="t_spectre_tile_1_1__pv1.0.0__33d2e361d44020bf14a55cf492"><path d="M-5.6101378 -1.0654992 L-6.6101378 -1.0654992 L-6.6101378 -0.065499242 L-5.7441124 0.43450076 L-6.2441124 1.3005262 L-5.7441124 2.1665516 L-4.878087 1.6665516 L-4.878087 0.66655157 L-3.878087 0.66655157 L-3.378087 -0.19947384 L-2.878087 -1.0654992 L-3.378087 -1.9315246 L-4.2441124 -1.4315246 L-5.1101378 -1.9315246 Z" fill-rule="evenodd" fill="#f1543f" opacity="1" stroke="#151821" stroke-width="0.08"/></g><g id="t_spectre_tile_1_1__pv1.0.0__e4b5ea32138da2ee0ab4dc0505"><path d="M-1.5120616 -3.4315246 L-1.0120616 -4.29755 L-1.878087 -4.79755 L-2.7441124 -4.29755 L-3.2441124 -5.1635755 L-4.2441124 -5.1635755 L-4.2441124 -4.1635755 L-3.378087 -3.6635755 L-3.878087 -2.79755 L-3.378087 -1.9315246 L-2.878087 -1.0654992 L-1.878087 -1.0654992 L-1.878087 -2.0654992 L-1.0120616 -2.5654992 Z" fill-rule="evenodd" fill="#f1543f" opacity="1" stroke="#151821" stroke-width="0.08"/></g><g id="t_spectre_tile_1_1__pv1.0.0__2545525fa15568a3b56dd11d89"><path d="M-4.2441124 -4.1635755 L-4.2441124 -5.1635755 L-5.2441124 -5.1635755 L-5.7441124 -4.29755 L-6.6101378 -4.79755 L-7.4761632 -4.29755 L-6.9761632 -3.4315246 L-5.9761632 -3.4315246 L-5.9761632 -2.4315246 L-5.1101378 -1.9315246 L-4.2441124 -1.4315246 L-3.378087 -1.9315246 L-3.878087 -2.79755 L-3.378087 -3.6635755 Z" fill-rule="evenodd" fill="#f1543f" opacity="1" stroke="#151821" stroke-width="0.08"/></g><g id="t_spectre_tile_1_1__pv1.0.0__883b71a4f69e43ff98f0b7230b"><path d="M0.85396384 -4.0654992 L1.3539638 -4.9315246 L0.48793844 -5.4315246 L-0.37808697 -4.9315246 L-0.87808697 -5.79755 L-1.878087 -5.79755 L-1.878087 -4.79755 L-1.0120616 -4.29755 L-1.5120616 -3.4315246 L-1.0120616 -2.5654992 L-0.51206156 -1.6994738 L0.48793844 -1.6994738 L0.48793844 -2.6994738 L1.3539638 -3.1994738 Z" fill-rule="evenodd" fill="#f1543f" opacity="1" stroke="#151821" stroke-width="0.08"/></g><g id="t_spectre_tile_1_1__pv1.0.0__3193b419c265f0aea65baf4363"><path d="M1.8539638 -2.3334484 L1.3539638 -3.1994738 L0.48793844 -2.6994738 L0.48793844 -1.6994738 L-0.51206156 -1.6994738 L-1.0120616 -0.83344843 L-0.14603616 -0.33344843 L0.71998925 -0.83344843 L1.2199892 0.032576969 L2.2199892 0.032576969 L3.2199892 0.032576969 L3.7199892 -0.83344843 L2.8539638 -1.3334484 L2.8539638 -2.3334484 Z" fill-rule="evenodd" fill="#f1543f" opacity="1" stroke="#151821" stroke-width="0.08"/></g><g id="t_spectre_tile_1_1__pv1.0.0__727c0121efe092e1f2cfce5ea5"><path d="M3.2199892 0.032576969 L2.2199892 0.032576969 L2.2199892 1.032577 L3.0860146 1.532577 L2.5860146 2.3986024 L3.0860146 3.2646278 L3.9520401 2.7646278 L3.9520401 1.7646278 L4.9520401 1.7646278 L5.4520401 0.89860237 L5.9520401 0.032576969 L5.4520401 -0.83344843 L4.5860146 -0.33344843 L3.7199892 -0.83344843 Z" fill-rule="evenodd" fill="#f1543f" opacity="1" stroke="#151821" stroke-width="0.08"/></g><g id="t_spectre_tile_1_1__pv1.0.0__1d025fc1234c6f8e6be7d9f936"><path d="M4.2199892 -1.6994738 L3.7199892 -0.83344843 L4.5860146 -0.33344843 L5.4520401 -0.83344843 L5.9520401 0.032576969 L6.9520401 0.032576969 L6.9520401 -0.96742303 L6.0860146 -1.467423 L6.5860146 -2.3334484 L6.0860146 -3.1994738 L5.5860146 -4.0654992 L4.5860146 -4.0654992 L4.5860146 -3.0654992 L3.7199892 -2.5654992 Z" fill-rule="evenodd" fill="#f1543f" opacity="1" stroke="#151821" stroke-width="0.08"/></g><g id="t_spectre_tile_1_1__pv1.0.0__4bd400dab8e5d4e1360007b00c"><path d="M6.5860146 -2.3334484 L6.0860146 -1.467423 L6.9520401 -0.96742303 L7.8180655 -1.467423 L8.3180655 -0.60139763 L9.3180655 -0.60139763 L9.3180655 -1.6013976 L8.4520401 -2.1013976 L8.9520401 -2.967423 L8.4520401 -3.8334484 L7.9520401 -4.6994738 L6.9520401 -4.6994738 L6.9520401 -3.6994738 L6.0860146 -3.1994738 Z" fill-rule="evenodd" fill="#f1543f" opacity="1" stroke="#151821" stroke-width="0.08"/></g><g id="t_spectre_tile_1_1__pv1.0.0__cf89511ef2a6044dd9254ee5b6"><path d="M5.5860146 -4.0654992 L6.0860146 -3.1994738 L6.9520401 -3.6994738 L6.9520401 -4.6994738 L7.9520401 -4.6994738 L8.4520401 -5.5654992 L7.5860146 -6.0654992 L6.7199892 -5.5654992 L6.2199892 -6.4315246 L5.2199892 -6.4315246 L4.2199892 -6.4315246 L3.7199892 -5.5654992 L4.5860146 -5.0654992 L4.5860146 -4.0654992 Z" fill-rule="evenodd" fill="#f1543f" opacity="1" stroke="#151821" stroke-width="0.08"/></g><g id="t_spectre_tile_1_1__pv1.0.0__4db7f074af721e90248459ae45"><path d="M1.4879384 -6.4315246 L0.48793844 -6.4315246 L0.48793844 -5.4315246 L1.3539638 -4.9315246 L0.85396384 -4.0654992 L1.3539638 -3.1994738 L2.2199892 -3.6994738 L2.2199892 -4.6994738 L3.2199892 -4.6994738 L3.7199892 -5.5654992 L4.2199892 -6.4315246 L3.7199892 -7.29755 L2.8539638 -6.79755 L1.9879384 -7.29755 Z" fill-rule="evenodd" fill="#f1543f" opacity="1" stroke="#151821" stroke-width="0.08"/></g><g id="t_spectre_tile_1_1__pv1.0.0__d9d28dd0d3de7f3a361c2bffa6"><path d="M2.2199892 -3.6994738 L1.3539638 -3.1994738 L1.8539638 -2.3334484 L2.8539638 -2.3334484 L2.8539638 -1.3334484 L3.7199892 -0.83344843 L4.2199892 -1.6994738 L3.7199892 -2.5654992 L4.5860146 -3.0654992 L4.5860146 -4.0654992 L4.5860146 -5.0654992 L3.7199892 -5.5654992 L3.2199892 -4.6994738 L2.2199892 -4.6994738 Z" fill-rule="evenodd" fill="#f1543f" opacity="1" stroke="#151821" stroke-width="0.08"/></g><g id="t_spectre_tile_1_1__pv1.0.0__b939f810fbbb6562992316025c"><path d="M21.550116 -13.931525 L22.416142 -14.431525 L22.416142 -14.433757 L21.260152 -14.433757 Z" fill-rule="evenodd" fill="#f1543f" opacity="1" stroke="#151821" stroke-width="0.08"/></g><g id="t_spectre_tile_1_1__pv1.0.0__5e8aa25b750b18c6814379b735"><path d="M10.353964 -14.395626 L10.420008 -14.433757 L10.331949 -14.433757 Z" fill-rule="evenodd" fill="#f1543f" opacity="1" stroke="#151821" stroke-width="0.08"/></g><g id="t_spectre_tile_1_1__pv1.0.0__6ccee7b0b4f6bb7b00848d1a20"><path d="M4.4879384 -12.895626 L4.9879384 -13.761652 L4.121913 -14.261652 L3.2558876 -13.761652 L2.8678476 -14.433757 L1.7558876 -14.433757 L1.7558876 -13.627677 L2.621913 -13.127677 L2.121913 -12.261652 L2.621913 -11.395626 L3.121913 -10.529601 L4.121913 -10.529601 L4.121913 -11.529601 L4.9879384 -12.029601 Z" fill-rule="evenodd" fill="#f1543f" opacity="1" stroke="#151821" stroke-width="0.08"/></g><g id="t_spectre_tile_1_1__pv1.0.0__8f88b603bfd210f9907ceef4d7"><path d="M5.4879384 -11.163575 L4.9879384 -12.029601 L4.121913 -11.529601 L4.121913 -10.529601 L3.121913 -10.529601 L2.621913 -9.6635755 L3.4879384 -9.1635755 L4.3539638 -9.6635755 L4.8539638 -8.79755 L5.8539638 -8.79755 L6.8539638 -8.79755 L7.3539638 -9.6635755 L6.4879384 -10.163575 L6.4879384 -11.163575 Z" fill-rule="evenodd" fill="#f1543f" opacity="1" stroke="#151821" stroke-width="0.08"/></g><g id="t_spectre_tile_1_1__pv1.0.0__d9b6f41a1caa7b6ca6fc6c6bca"><path d="M4.8539638 -8.79755 L4.3539638 -9.6635755 L3.4879384 -9.1635755 L3.4879384 -8.1635755 L2.4879384 -8.1635755 L1.9879384 -7.29755 L2.8539638 -6.79755 L3.7199892 -7.29755 L4.2199892 -6.4315246 L5.2199892 -6.4315246 L6.2199892 -6.4315246 L6.7199892 -7.29755 L5.8539638 -7.79755 L5.8539638 -8.79755 Z" fill-rule="evenodd" fill="#f1543f" opacity="1" stroke="#151821" stroke-width="0.08"/></g><g id="t_spectre_tile_1_1__pv1.0.0__954e26321a10fe772ba35aa351"><path d="M6.8539638 -8.79755 L5.8539638 -8.79755 L5.8539638 -7.79755 L6.7199892 -7.29755 L6.2199892 -6.4315246 L6.7199892 -5.5654992 L7.5860146 -6.0654992 L7.5860146 -7.0654992 L8.5860146 -7.0654992 L9.0860146 -7.9315246 L9.5860146 -8.79755 L9.0860146 -9.6635755 L8.2199892 -9.1635755 L7.3539638 -9.6635755 Z" fill-rule="evenodd" fill="#f1543f" opacity="1" stroke="#151821" stroke-width="0.08"/></g><g id="t_spectre_tile_1_1__pv1.0.0__c094c5842c11e401f8533189c4"><path d="M7.8539638 -10.529601 L7.3539638 -9.6635755 L8.2199892 -9.1635755 L9.0860146 -9.6635755 L9.5860146 -8.79755 L10.586015 -8.79755 L10.586015 -9.79755 L9.7199892 -10.29755 L10.219989 -11.163575 L9.7199892 -12.029601 L9.2199892 -12.895626 L8.2199892 -12.895626 L8.2199892 -11.895626 L7.3539638 -11.395626 Z" fill-rule="evenodd" fill="#f1543f" opacity="1" stroke="#151821" stroke-width="0.08"/></g><g id="t_spectre_tile_1_1__pv1.0.0__c82cdd332d2a6197702307d984"><path d="M10.219989 -11.163575 L9.7199892 -10.29755 L10.586015 -9.79755 L11.45204 -10.29755 L11.95204 -9.4315246 L12.95204 -9.4315246 L12.95204 -10.431525 L12.086015 -10.931525 L12.586015 -11.79755 L12.086015 -12.663575 L11.586015 -13.529601 L10.586015 -13.529601 L10.586015 -12.529601 L9.7199892 -12.029601 Z" fill-rule="evenodd" fill="#f1543f" opacity="1" stroke="#151821" stroke-width="0.08"/></g><g id="t_spectre_tile_1_1__pv1.0.0__13c9c4a865cb679600c23837dc"><path d="M9.2199892 -12.895626 L9.7199892 -12.029601 L10.586015 -12.529601 L10.586015 -13.529601 L11.586015 -13.529601 L12.086015 -14.395626 L12.019971 -14.433757 L10.420008 -14.433757 L10.353964 -14.395626 L10.331949 -14.433757 L7.3759785 -14.433757 L7.3539638 -14.395626 L8.2199892 -13.895626 L8.2199892 -12.895626 Z" fill-rule="evenodd" fill="#f1543f" opacity="1" stroke="#151821" stroke-width="0.08"/></g><g id="t_spectre_tile_1_1__pv1.0.0__e84339a973d06845d51c035362"><path d="M4.121913 -14.261652 L4.9879384 -13.761652 L4.4879384 -12.895626 L4.9879384 -12.029601 L5.8539638 -12.529601 L5.8539638 -13.529601 L6.8539638 -13.529601 L7.3539638 -14.395626 L7.3759785 -14.433757 L4.121913 -14.433757 Z" fill-rule="evenodd" fill="#f1543f" opacity="1" stroke="#151821" stroke-width="0.08"/></g><g id="t_spectre_tile_1_1__pv1.0.0__081f75f37fed9879169ff7e3a1"><path d="M5.8539638 -12.529601 L4.9879384 -12.029601 L5.4879384 -11.163575 L6.4879384 -11.163575 L6.4879384 -10.163575 L7.3539638 -9.6635755 L7.8539638 -10.529601 L7.3539638 -11.395626 L8.2199892 -11.895626 L8.2199892 -12.895626 L8.2199892 -13.895626 L7.3539638 -14.395626 L6.8539638 -13.529601 L5.8539638 -13.529601 Z" fill-rule="evenodd" fill="#f1543f" opacity="1" stroke="#151821" stroke-width="0.08"/></g><g id="t_spectre_tile_1_1__pv1.0.0__81539442a78a909dbd2f54a794"><path d="M3.2558876 -13.761652 L4.121913 -14.261652 L4.121913 -14.433757 L2.8678476 -14.433757 Z" fill-rule="evenodd" fill="#f1543f" opacity="1" stroke="#151821" stroke-width="0.08"/></g><g id="t_spectre_tile_1_1__pv1.0.0__2da636d3029301933fe1cddd14"><path d="M-24.502443 -14.05588 L-24.642138 -13.813921 L-23.961985 -12.635863 L-23.636417 -12.823829 L-23.636417 -13.823829 L-22.636417 -13.823829 L-22.284276 -14.433757 L-25 -14.433757 L-24.921528 -14.297839 Z" fill-rule="evenodd" fill="#f1543f" opacity="1" stroke="#151821" stroke-width="0.08"/></g><g id="t_spectre_tile_1_1__pv1.0.0__fc95a5ad6624167ca6a9a4ba17"><path d="M-24.502443 -14.05588 L-24.921528 -14.297839 L-24.642138 -13.813921 Z" fill-rule="evenodd" fill="#f1543f" opacity="1" stroke="#151821" stroke-width="0.08"/></g></g></svg>